<?xml version="1.0" encoding="UTF-8"?>
<svg xmlns="http://www.w3.org/2000/svg" xmlns:xlink="http://www.w3.org/1999/xlink" width="200px" height="200px" viewBox="0 0 200 200" version="1.1">
<g id="surface1">
<path style=" stroke:none;fill-rule:nonzero;fill:rgb(99.607843%,99.607843%,99.607843%);fill-opacity:1;" d="M 0 0 C 66 0 132 0 200 0 C 200 66 200 132 200 200 C 134 200 68 200 0 200 C 0 134 0 68 0 0 Z M 0 0 "/>
<path style=" stroke:none;fill-rule:nonzero;fill:rgb(20.784314%,26.666668%,31.764707%);fill-opacity:1;" d="M 78.121094 33.773438 C 78.746094 33.765625 79.371094 33.761719 79.996094 33.753906 C 80.273438 33.753906 80.554688 33.75 80.835938 33.742188 C 82.542969 33.710938 83.761719 33.695312 85.105469 34.828125 C 86.253906 36.195312 86.230469 37.503906 86.21875 39.203125 C 86.21875 39.628906 86.222656 40.054688 86.230469 40.476562 C 86.25 44.078125 85.171875 47.234375 82.8125 50 C 82.699219 50.136719 82.582031 50.273438 82.464844 50.410156 C 82.191406 50.734375 81.917969 51.050781 81.640625 51.367188 C 81.800781 51.445312 81.960938 51.523438 82.128906 51.605469 C 84.863281 52.996094 86.785156 54.789062 87.976562 57.679688 C 88.734375 60.191406 88.621094 63.445312 87.5 65.820312 C 86.863281 67 86.167969 68.058594 85.15625 68.945312 C 85.0625 69.039062 84.964844 69.132812 84.867188 69.226562 C 83.300781 70.703125 81.167969 71.289062 79.164062 71.9375 C 78.839844 72.042969 78.839844 72.042969 78.515625 72.148438 C 77.996094 72.320312 77.472656 72.488281 76.953125 72.65625 C 77.074219 72.679688 77.195312 72.699219 77.320312 72.722656 C 81.003906 73.417969 84.042969 74.179688 86.363281 77.339844 C 88.109375 79.972656 88.636719 82.699219 88.1875 85.792969 C 87.636719 88.316406 86.378906 90.585938 84.292969 92.152344 C 82.382812 93.363281 80.140625 93.929688 77.992188 94.578125 C 77.640625 94.6875 77.640625 94.6875 77.285156 94.796875 C 76.71875 94.96875 76.152344 95.140625 75.585938 95.3125 C 75.742188 95.34375 75.894531 95.375 76.054688 95.40625 C 76.765625 95.554688 77.476562 95.703125 78.1875 95.847656 C 78.429688 95.898438 78.671875 95.949219 78.921875 96 C 82.121094 96.671875 84.554688 97.667969 86.523438 100.390625 C 88.082031 103.097656 88.703125 105.632812 88.152344 108.726562 C 87.378906 111.503906 85.710938 113.554688 83.300781 115.066406 C 81.929688 115.792969 80.441406 116.222656 78.96875 116.6875 C 78.636719 116.792969 78.308594 116.898438 77.980469 117.007812 C 77.183594 117.265625 76.386719 117.519531 75.585938 117.773438 C 75.71875 117.800781 75.855469 117.824219 75.992188 117.851562 C 84.21875 119.417969 84.21875 119.417969 86.523438 122.65625 C 87.984375 125.121094 88.742188 127.652344 88.148438 130.535156 C 87.261719 133.648438 85.566406 136.066406 82.808594 137.769531 C 81.902344 138.261719 80.96875 138.566406 79.980469 138.855469 C 79.773438 138.917969 79.566406 138.980469 79.355469 139.046875 C 78.6875 139.25 78.015625 139.449219 77.34375 139.648438 C 77.101562 139.71875 76.859375 139.792969 76.609375 139.867188 C 74.601562 140.460938 74.601562 140.460938 73.714844 140.71875 C 73.503906 140.78125 73.289062 140.839844 73.070312 140.90625 C 72.882812 140.960938 72.695312 141.015625 72.5 141.070312 C 72.078125 141.171875 72.078125 141.171875 71.875 141.40625 C 71.984375 141.425781 72.09375 141.445312 72.207031 141.46875 C 73.363281 141.679688 74.515625 141.898438 75.667969 142.113281 C 76.097656 142.195312 76.527344 142.273438 76.957031 142.355469 C 84.355469 143.722656 84.355469 143.722656 86.773438 146.929688 C 87.816406 148.582031 88.308594 150.210938 88.320312 152.144531 C 88.320312 152.296875 88.324219 152.449219 88.324219 152.605469 C 88.324219 152.921875 88.328125 153.242188 88.328125 153.5625 C 88.328125 154.046875 88.335938 154.535156 88.34375 155.019531 C 88.34375 155.332031 88.34375 155.640625 88.34375 155.953125 C 88.347656 156.097656 88.351562 156.242188 88.351562 156.386719 C 88.347656 157.585938 88.117188 158.671875 87.332031 159.617188 C 87.203125 159.722656 87.070312 159.828125 86.9375 159.9375 C 86.746094 160.097656 86.746094 160.097656 86.550781 160.265625 C 85.429688 161.023438 84.402344 160.996094 83.09375 160.992188 C 82.882812 160.992188 82.671875 160.992188 82.453125 160.996094 C 81.75 160.996094 81.042969 160.996094 80.335938 160.996094 C 79.832031 161 79.324219 161 78.820312 161.003906 C 77.445312 161.007812 76.070312 161.007812 74.695312 161.007812 C 73.839844 161.011719 72.980469 161.011719 72.121094 161.011719 C 69.742188 161.015625 67.367188 161.019531 64.988281 161.019531 C 64.761719 161.019531 64.761719 161.019531 64.527344 161.019531 C 64.21875 161.019531 63.910156 161.019531 63.601562 161.019531 C 63.449219 161.019531 63.296875 161.019531 63.136719 161.019531 C 62.984375 161.019531 62.832031 161.019531 62.675781 161.019531 C 60.191406 161.019531 57.707031 161.027344 55.222656 161.035156 C 52.675781 161.042969 50.125 161.046875 47.574219 161.046875 C 46.140625 161.046875 44.710938 161.046875 43.277344 161.050781 C 41.933594 161.058594 40.585938 161.058594 39.238281 161.054688 C 38.746094 161.054688 38.25 161.054688 37.757812 161.058594 C 37.082031 161.0625 36.40625 161.0625 35.734375 161.058594 C 35.539062 161.058594 35.339844 161.0625 35.140625 161.066406 C 33.710938 161.046875 32.773438 160.664062 31.734375 159.679688 C 30.339844 158.140625 30.539062 156.132812 30.625 154.195312 C 30.859375 151.179688 32.546875 148.449219 34.804688 146.503906 C 36.15625 145.480469 37.675781 144.898438 39.257812 144.335938 C 39.390625 144.289062 39.523438 144.238281 39.664062 144.191406 C 42 143.359375 42 143.359375 42.96875 143.359375 C 42.96875 143.230469 42.96875 143.101562 42.96875 142.96875 C 42.800781 142.960938 42.800781 142.960938 42.628906 142.953125 C 39.199219 142.722656 35.804688 142.085938 33.398438 139.453125 C 31.1875 136.496094 30.765625 133.699219 31.054688 130.078125 C 31.355469 128.292969 32.261719 126.769531 33.398438 125.390625 C 33.496094 125.265625 33.59375 125.144531 33.695312 125.015625 C 35.667969 122.765625 39.125 122.097656 41.871094 121.300781 C 42.261719 121.183594 42.65625 121.070312 43.046875 120.953125 C 43.996094 120.671875 44.945312 120.394531 45.898438 120.117188 C 45.5625 120.070312 45.5625 120.070312 45.222656 120.023438 C 44.378906 119.910156 43.539062 119.789062 42.699219 119.671875 C 42.339844 119.617188 41.976562 119.570312 41.617188 119.519531 C 38.101562 119.042969 35.035156 118.34375 32.691406 115.4375 C 31.089844 113.054688 30.441406 110.550781 30.992188 107.707031 C 31.378906 106.332031 31.941406 105.226562 32.8125 104.101562 C 32.957031 103.898438 33.101562 103.699219 33.25 103.492188 C 35.378906 101.269531 38.351562 100.464844 41.191406 99.53125 C 41.664062 99.375 42.140625 99.21875 42.613281 99.0625 C 42.917969 98.960938 43.222656 98.859375 43.527344 98.757812 C 43.738281 98.6875 43.738281 98.6875 43.949219 98.617188 C 44.789062 98.34375 45.632812 98.089844 46.484375 97.851562 C 46.285156 97.820312 46.085938 97.785156 45.882812 97.753906 C 45.132812 97.628906 44.382812 97.507812 43.628906 97.382812 C 43.308594 97.328125 42.984375 97.277344 42.664062 97.222656 C 34.886719 95.957031 34.886719 95.957031 32.617188 93.164062 C 31.355469 91.40625 30.746094 89.6875 30.773438 87.523438 C 30.777344 87.351562 30.777344 87.179688 30.777344 87.003906 C 30.8125 85.675781 31.003906 84.578125 31.640625 83.398438 C 31.734375 83.214844 31.832031 83.035156 31.929688 82.847656 C 33.855469 79.503906 37.417969 78.414062 40.878906 77.28125 C 41.429688 77.097656 41.984375 76.914062 42.535156 76.730469 C 42.890625 76.613281 43.25 76.496094 43.605469 76.375 C 43.765625 76.320312 43.929688 76.269531 44.097656 76.210938 C 45.203125 75.851562 46.3125 75.597656 47.460938 75.390625 C 47.460938 75.261719 47.460938 75.132812 47.460938 75 C 47.292969 74.992188 47.125 74.984375 46.953125 74.980469 C 45.011719 74.875 43.121094 74.621094 41.207031 74.28125 C 40.710938 74.195312 40.214844 74.113281 39.71875 74.035156 C 36.738281 73.527344 34.210938 72.625 32.328125 70.125 C 31.339844 68.660156 30.941406 67.121094 30.957031 65.367188 C 30.957031 65.125 30.957031 65.125 30.960938 64.878906 C 31.023438 62.699219 31.894531 60.941406 33.398438 59.375 C 34.75 58.160156 36.320312 57.429688 38.050781 56.929688 C 38.191406 56.886719 38.335938 56.847656 38.484375 56.800781 C 38.945312 56.664062 39.40625 56.53125 39.867188 56.394531 C 40.1875 56.300781 40.507812 56.207031 40.828125 56.113281 C 43.742188 55.261719 46.671875 54.46875 49.609375 53.710938 C 49.085938 53.535156 48.703125 53.472656 48.160156 53.433594 C 47.988281 53.421875 47.8125 53.40625 47.632812 53.394531 C 47.445312 53.378906 47.253906 53.367188 47.0625 53.351562 C 46.65625 53.320312 46.253906 53.289062 45.851562 53.257812 C 45.21875 53.210938 44.585938 53.164062 43.953125 53.117188 C 37.976562 52.679688 37.976562 52.679688 35.523438 51.269531 C 35.226562 51.101562 35.226562 51.101562 34.921875 50.933594 C 32.699219 49.519531 31.375 47.5 30.75 44.96875 C 30.609375 44.25 30.601562 43.539062 30.597656 42.808594 C 30.597656 42.652344 30.597656 42.492188 30.59375 42.328125 C 30.59375 41.996094 30.589844 41.660156 30.589844 41.328125 C 30.589844 40.820312 30.582031 40.316406 30.578125 39.808594 C 30.574219 39.484375 30.574219 39.15625 30.574219 38.832031 C 30.570312 38.679688 30.570312 38.53125 30.566406 38.378906 C 30.574219 37.117188 30.957031 36.101562 31.792969 35.152344 C 31.902344 35.066406 32.015625 34.976562 32.128906 34.886719 C 32.238281 34.796875 32.351562 34.707031 32.464844 34.613281 C 33.390625 33.976562 34.160156 33.925781 35.273438 33.929688 C 35.445312 33.929688 35.617188 33.925781 35.792969 33.925781 C 36.371094 33.921875 36.945312 33.921875 37.519531 33.921875 C 37.933594 33.921875 38.347656 33.917969 38.757812 33.917969 C 39.882812 33.910156 41.007812 33.90625 42.132812 33.90625 C 43.3125 33.902344 44.492188 33.898438 45.675781 33.890625 C 47.921875 33.882812 50.167969 33.875 52.410156 33.871094 C 54.941406 33.863281 57.46875 33.851562 60 33.84375 C 63.089844 33.832031 66.183594 33.820312 69.277344 33.808594 C 69.496094 33.808594 69.714844 33.808594 69.941406 33.804688 C 71 33.804688 72.058594 33.800781 73.117188 33.796875 C 73.515625 33.796875 73.914062 33.796875 74.3125 33.796875 C 74.597656 33.796875 74.597656 33.796875 74.890625 33.796875 C 75.96875 33.792969 77.042969 33.785156 78.121094 33.773438 Z M 78.121094 33.773438 "/>
<path style=" stroke:none;fill-rule:nonzero;fill:rgb(20.784314%,26.666668%,31.764707%);fill-opacity:1;" d="M 146.609375 16.855469 C 150.066406 19.703125 152.359375 23.714844 153.125 28.125 C 153.488281 33.621094 152.449219 38.28125 148.777344 42.5 C 147.589844 43.765625 146.273438 44.730469 144.726562 45.507812 C 144.53125 45.507812 144.339844 45.507812 144.140625 45.507812 C 144.140625 46.539062 144.140625 47.570312 144.140625 48.632812 C 144.445312 48.628906 144.746094 48.621094 145.058594 48.617188 C 146.191406 48.597656 147.324219 48.589844 148.457031 48.578125 C 148.945312 48.574219 149.433594 48.566406 149.921875 48.558594 C 150.628906 48.546875 151.332031 48.542969 152.035156 48.539062 C 152.253906 48.53125 152.46875 48.527344 152.691406 48.523438 C 154.496094 48.523438 155.863281 49.019531 157.203125 50.246094 C 158.339844 51.515625 158.710938 52.859375 158.691406 54.535156 C 158.695312 54.710938 158.695312 54.882812 158.695312 55.058594 C 158.699219 55.632812 158.699219 56.207031 158.695312 56.78125 C 158.695312 57.195312 158.699219 57.609375 158.699219 58.023438 C 158.703125 59.140625 158.699219 60.261719 158.699219 61.378906 C 158.695312 62.554688 158.699219 63.726562 158.699219 64.898438 C 158.703125 66.867188 158.699219 68.835938 158.695312 70.804688 C 158.691406 73.082031 158.691406 75.355469 158.695312 77.632812 C 158.699219 79.585938 158.699219 81.542969 158.699219 83.496094 C 158.699219 84.664062 158.699219 85.832031 158.699219 86.996094 C 158.703125 88.09375 158.699219 89.191406 158.695312 90.289062 C 158.695312 90.691406 158.695312 91.09375 158.699219 91.496094 C 158.699219 92.042969 158.695312 92.59375 158.691406 93.144531 C 158.695312 93.300781 158.695312 93.460938 158.699219 93.625 C 158.675781 95.144531 158.070312 96.351562 157.03125 97.460938 C 155.683594 98.480469 154.488281 98.710938 152.847656 98.664062 C 152.601562 98.660156 152.601562 98.660156 152.355469 98.660156 C 151.960938 98.652344 151.566406 98.644531 151.171875 98.632812 C 151.171875 98.832031 151.171875 99.027344 151.175781 99.230469 C 151.191406 104.039062 151.203125 108.847656 151.210938 113.65625 C 151.214844 115.984375 151.222656 118.308594 151.230469 120.636719 C 151.238281 122.664062 151.242188 124.691406 151.246094 126.71875 C 151.246094 127.789062 151.25 128.863281 151.253906 129.9375 C 151.261719 130.945312 151.261719 131.957031 151.261719 132.96875 C 151.261719 133.339844 151.261719 133.710938 151.265625 134.078125 C 151.285156 136.59375 151.1875 138.582031 149.371094 140.492188 C 147.390625 142.367188 145.136719 142.25 142.578125 142.1875 C 142.578125 143.863281 142.578125 145.539062 142.578125 147.265625 C 142.898438 147.332031 143.222656 147.394531 143.554688 147.460938 C 145.089844 148.140625 146.398438 149.09375 147.65625 150.195312 C 147.789062 150.308594 147.921875 150.421875 148.058594 150.539062 C 151.058594 153.3125 152.996094 157.707031 153.171875 161.769531 C 153.289062 166.957031 151.917969 171.5625 148.328125 175.40625 C 146.589844 177.191406 144.636719 178.441406 142.371094 179.46875 C 142.195312 179.546875 142.195312 179.546875 142.015625 179.628906 C 139.980469 180.496094 137.886719 180.769531 135.691406 180.75 C 135.464844 180.746094 135.234375 180.746094 134.996094 180.746094 C 131.800781 180.679688 129.328125 179.878906 126.5625 178.320312 C 126.371094 178.21875 126.183594 178.117188 125.984375 178.011719 C 123.34375 176.484375 121.402344 174.105469 119.921875 171.484375 C 119.773438 171.230469 119.773438 171.230469 119.625 170.976562 C 117.722656 167.464844 117.292969 162.488281 118.296875 158.628906 C 119.703125 153.90625 122.394531 150.195312 126.707031 147.753906 C 127.34375 147.460938 127.34375 147.460938 128.515625 147.265625 C 128.515625 145.589844 128.515625 143.914062 128.515625 142.1875 C 127.609375 142.210938 127.609375 142.210938 126.683594 142.238281 C 124.300781 142.253906 122.964844 141.78125 121.15625 140.195312 C 119.5 138.195312 119.574219 136.222656 119.570312 133.742188 C 119.5625 133.324219 119.558594 132.910156 119.554688 132.492188 C 119.539062 131.171875 119.535156 129.851562 119.53125 128.53125 C 119.53125 127.96875 119.527344 127.410156 119.527344 126.851562 C 119.511719 122.695312 119.511719 118.542969 119.515625 114.386719 C 119.519531 112.683594 119.519531 110.984375 119.519531 109.28125 C 119.523438 105.796875 119.527344 102.3125 119.53125 98.828125 C 119.292969 98.832031 119.054688 98.839844 118.808594 98.84375 C 118.492188 98.851562 118.171875 98.855469 117.855469 98.859375 C 117.621094 98.863281 117.621094 98.863281 117.382812 98.871094 C 115.761719 98.886719 114.46875 98.429688 113.289062 97.285156 C 112.183594 95.925781 111.824219 94.480469 111.835938 92.769531 C 111.835938 92.597656 111.835938 92.429688 111.832031 92.253906 C 111.832031 91.683594 111.832031 91.117188 111.832031 90.546875 C 111.832031 90.140625 111.828125 89.730469 111.828125 89.320312 C 111.824219 88.214844 111.820312 87.105469 111.824219 85.996094 C 111.824219 85.070312 111.820312 84.144531 111.820312 83.21875 C 111.816406 81.035156 111.816406 78.847656 111.816406 76.664062 C 111.816406 74.410156 111.8125 72.160156 111.804688 69.90625 C 111.800781 67.972656 111.796875 66.035156 111.796875 64.097656 C 111.796875 62.945312 111.796875 61.789062 111.792969 60.632812 C 111.789062 59.546875 111.789062 58.460938 111.792969 57.375 C 111.792969 56.976562 111.792969 56.578125 111.789062 56.179688 C 111.773438 53.734375 111.859375 51.980469 113.488281 50.035156 C 115.046875 48.609375 116.972656 48.292969 119.007812 48.34375 C 119.226562 48.34375 119.445312 48.34375 119.667969 48.347656 C 120.355469 48.351562 121.042969 48.363281 121.726562 48.375 C 122.199219 48.382812 122.667969 48.386719 123.136719 48.390625 C 124.277344 48.402344 125.421875 48.417969 126.5625 48.4375 C 126.554688 47.964844 126.542969 47.492188 126.523438 47.019531 C 126.523438 46.886719 126.523438 46.753906 126.519531 46.617188 C 126.488281 45.890625 126.433594 45.574219 125.910156 45.054688 C 125.554688 44.839844 125.1875 44.640625 124.8125 44.449219 C 121.664062 42.808594 119.816406 39.304688 118.675781 36.085938 C 117.1875 31.171875 117.921875 26.128906 120.285156 21.632812 C 120.835938 20.636719 121.496094 19.78125 122.265625 18.945312 C 122.40625 18.785156 122.550781 18.625 122.695312 18.460938 C 128.953125 11.78125 139.503906 11.269531 146.609375 16.855469 Z M 146.609375 16.855469 "/>
<path style=" stroke:none;fill-rule:nonzero;fill:rgb(86.666667%,87.450981%,88.235295%);fill-opacity:1;" d="M 118.75 55.273438 C 129.640625 55.273438 140.535156 55.273438 151.757812 55.273438 C 151.757812 67.390625 151.757812 79.507812 151.757812 91.992188 C 145.328125 92.039062 145.328125 92.039062 138.769531 92.089844 C 137.429688 92.101562 136.089844 92.109375 134.707031 92.121094 C 133.039062 92.132812 133.039062 92.132812 132.25 92.140625 C 131.714844 92.144531 131.175781 92.148438 130.640625 92.152344 C 129.945312 92.15625 129.253906 92.160156 128.558594 92.167969 C 128.199219 92.167969 127.835938 92.171875 127.472656 92.175781 C 124.566406 92.195312 121.660156 92.1875 118.75 92.1875 C 118.75 80.007812 118.75 67.824219 118.75 55.273438 Z M 118.75 55.273438 "/>
<path style=" stroke:none;fill-rule:nonzero;fill:rgb(5.882353%,58.823532%,92.941177%);fill-opacity:1;" d="M 126.367188 98.632812 C 132.425781 98.632812 138.484375 98.632812 144.726562 98.632812 C 144.742188 105.332031 144.742188 105.332031 144.738281 107.375 C 144.738281 107.519531 144.738281 107.660156 144.738281 107.808594 C 144.730469 112.800781 144.640625 117.792969 144.550781 122.785156 C 144.527344 124.324219 144.5 125.859375 144.476562 127.398438 C 144.429688 130.117188 144.382812 132.832031 144.335938 135.546875 C 138.46875 135.609375 132.605469 135.675781 126.5625 135.742188 C 126.449219 130.929688 126.335938 126.128906 126.347656 121.320312 C 126.347656 120.378906 126.347656 119.441406 126.347656 118.503906 C 126.347656 117.027344 126.351562 115.550781 126.351562 114.074219 C 126.355469 112.066406 126.355469 110.058594 126.359375 108.054688 C 126.359375 104.914062 126.363281 101.773438 126.367188 98.632812 Z M 126.367188 98.632812 "/>
<path style=" stroke:none;fill-rule:nonzero;fill:rgb(99.215686%,99.215686%,99.215686%);fill-opacity:1;" d="M 63.28125 122.851562 C 63.5 122.878906 63.714844 122.90625 63.9375 122.933594 C 64.582031 123.015625 65.226562 123.109375 65.867188 123.207031 C 66.101562 123.238281 66.335938 123.273438 66.578125 123.3125 C 67.0625 123.382812 67.550781 123.453125 68.035156 123.527344 C 68.71875 123.628906 69.398438 123.722656 70.082031 123.816406 C 72.402344 124.136719 74.707031 124.515625 77 124.976562 C 77.34375 125.039062 77.34375 125.039062 77.695312 125.105469 C 78.996094 125.378906 80.003906 125.695312 80.859375 126.757812 C 81.371094 127.660156 81.371094 128.472656 81.25 129.492188 C 80.9375 130.566406 80.199219 131.136719 79.289062 131.722656 C 78.210938 132.296875 77.050781 132.632812 75.890625 132.988281 C 75.414062 133.132812 74.9375 133.285156 74.464844 133.433594 C 73.964844 133.589844 73.46875 133.75 72.972656 133.90625 C 71.425781 134.390625 69.890625 134.898438 68.355469 135.414062 C 67.921875 135.558594 67.484375 135.703125 67.050781 135.847656 C 65.730469 136.285156 64.414062 136.730469 63.101562 137.191406 C 62.519531 137.398438 61.929688 137.601562 61.34375 137.804688 C 61.070312 137.902344 60.796875 138 60.523438 138.097656 C 58.902344 138.683594 57.578125 139.015625 55.859375 138.671875 C 55.679688 138.640625 55.5 138.609375 55.3125 138.578125 C 54.738281 138.46875 54.164062 138.351562 53.589844 138.234375 C 53.15625 138.144531 52.71875 138.054688 52.285156 137.964844 C 51.851562 137.875 51.414062 137.785156 50.976562 137.695312 C 50.199219 137.535156 49.421875 137.375 48.644531 137.21875 C 48.355469 137.160156 48.355469 137.160156 48.058594 137.097656 C 46.828125 136.851562 45.597656 136.636719 44.359375 136.4375 C 43.90625 136.363281 43.453125 136.289062 43 136.214844 C 42.707031 136.167969 42.410156 136.125 42.113281 136.082031 C 39.207031 135.652344 39.207031 135.652344 38.085938 134.375 C 37.566406 133.542969 37.574219 132.59375 37.695312 131.640625 C 38.027344 130.417969 38.707031 129.84375 39.746094 129.179688 C 40.503906 128.757812 41.277344 128.519531 42.113281 128.292969 C 42.289062 128.242188 42.464844 128.191406 42.644531 128.136719 C 43.015625 128.03125 43.386719 127.925781 43.761719 127.820312 C 44.539062 127.605469 45.320312 127.378906 46.097656 127.152344 C 46.484375 127.042969 46.867188 126.933594 47.253906 126.820312 C 48.640625 126.425781 50.019531 126.007812 51.390625 125.5625 C 51.574219 125.503906 51.753906 125.445312 51.941406 125.386719 C 52.945312 125.0625 53.941406 124.726562 54.9375 124.378906 C 55.527344 124.171875 56.121094 123.972656 56.714844 123.769531 C 57 123.671875 57.289062 123.574219 57.574219 123.46875 C 59.566406 122.753906 61.144531 122.550781 63.28125 122.851562 Z M 63.28125 122.851562 "/>
<path style=" stroke:none;fill-rule:nonzero;fill:rgb(99.215686%,99.215686%,99.215686%);fill-opacity:1;" d="M 63.207031 77.476562 C 63.453125 77.515625 63.699219 77.554688 63.953125 77.59375 C 64.25 77.640625 64.546875 77.6875 64.84375 77.734375 C 65.605469 77.851562 66.367188 77.972656 67.125 78.089844 C 67.339844 78.121094 67.550781 78.15625 67.769531 78.1875 C 69.074219 78.390625 70.378906 78.582031 71.6875 78.761719 C 71.914062 78.792969 71.914062 78.792969 72.144531 78.828125 C 72.890625 78.929688 73.632812 79.03125 74.378906 79.132812 C 79.398438 79.824219 79.398438 79.824219 80.835938 81.433594 C 81.507812 82.433594 81.382812 83.613281 81.25 84.765625 C 80.933594 85.753906 80.363281 86.367188 79.492188 86.914062 C 78.632812 87.277344 77.75 87.550781 76.863281 87.832031 C 76.601562 87.914062 76.339844 88 76.078125 88.085938 C 75.382812 88.3125 74.6875 88.535156 73.988281 88.753906 C 72.84375 89.117188 71.699219 89.488281 70.554688 89.855469 C 70.273438 89.945312 69.992188 90.035156 69.710938 90.128906 C 68.101562 90.644531 66.5 91.175781 64.917969 91.78125 C 62.203125 92.824219 60.113281 93.5 57.238281 92.730469 C 56.527344 92.550781 55.808594 92.402344 55.089844 92.261719 C 54.949219 92.234375 54.8125 92.207031 54.667969 92.175781 C 54.378906 92.121094 54.089844 92.0625 53.800781 92.007812 C 53.355469 91.917969 52.914062 91.828125 52.472656 91.738281 C 50.488281 91.332031 48.5 90.980469 46.496094 90.671875 C 46.367188 90.652344 46.238281 90.632812 46.101562 90.613281 C 44.851562 90.421875 43.597656 90.238281 42.34375 90.066406 C 42.164062 90.039062 41.984375 90.015625 41.800781 89.988281 C 41.480469 89.941406 41.160156 89.898438 40.839844 89.859375 C 39.742188 89.707031 38.652344 89.496094 37.902344 88.625 C 37.632812 87.929688 37.605469 87.457031 37.695312 86.71875 C 38.351562 85.433594 39.34375 84.820312 40.691406 84.371094 C 40.828125 84.328125 40.960938 84.285156 41.101562 84.242188 C 41.25 84.191406 41.398438 84.144531 41.554688 84.09375 C 42.761719 83.707031 43.980469 83.359375 45.199219 83.011719 C 50.527344 81.5 55.765625 79.691406 60.925781 77.683594 C 61.765625 77.382812 62.324219 77.339844 63.207031 77.476562 Z M 63.207031 77.476562 "/>
<path style=" stroke:none;fill-rule:nonzero;fill:rgb(99.215686%,99.215686%,99.215686%);fill-opacity:1;" d="M 67.40625 101.011719 C 67.84375 101.074219 68.277344 101.140625 68.710938 101.203125 C 69.773438 101.355469 70.832031 101.511719 71.890625 101.671875 C 72.410156 101.75 72.933594 101.828125 73.457031 101.90625 C 74.269531 102.027344 75.078125 102.152344 75.890625 102.28125 C 76.117188 102.316406 76.34375 102.351562 76.578125 102.386719 C 78.074219 102.636719 79.773438 102.9375 80.761719 104.199219 C 80.851562 104.308594 80.941406 104.421875 81.035156 104.535156 C 81.515625 105.3125 81.535156 106.140625 81.445312 107.03125 C 80.976562 108.109375 80.355469 108.84375 79.296875 109.375 C 78.921875 109.5 78.546875 109.617188 78.171875 109.730469 C 77.941406 109.796875 77.714844 109.867188 77.480469 109.9375 C 77.121094 110.046875 77.121094 110.046875 76.757812 110.15625 C 75.90625 110.417969 75.054688 110.679688 74.203125 110.945312 C 73.921875 111.03125 73.644531 111.117188 73.367188 111.203125 C 71.355469 111.824219 69.367188 112.492188 67.386719 113.199219 C 66.945312 113.351562 66.507812 113.507812 66.070312 113.660156 C 65.417969 113.890625 64.765625 114.121094 64.117188 114.359375 C 63.507812 114.582031 62.894531 114.796875 62.28125 115.011719 C 62.101562 115.082031 61.921875 115.148438 61.734375 115.21875 C 60.320312 115.703125 59.253906 115.574219 57.8125 115.234375 C 57.460938 115.160156 57.109375 115.085938 56.757812 115.015625 C 56.398438 114.9375 56.039062 114.859375 55.679688 114.777344 C 52.941406 114.195312 50.1875 113.765625 47.425781 113.34375 C 46.929688 113.265625 46.4375 113.1875 45.945312 113.113281 C 45.039062 112.96875 44.132812 112.828125 43.226562 112.691406 C 43.027344 112.660156 42.824219 112.628906 42.617188 112.59375 C 42.175781 112.527344 41.738281 112.464844 41.296875 112.402344 C 41.070312 112.371094 40.84375 112.335938 40.609375 112.304688 C 40.40625 112.277344 40.199219 112.246094 39.992188 112.21875 C 38.988281 112.015625 38.460938 111.597656 37.890625 110.742188 C 37.824219 110.292969 37.824219 110.292969 37.816406 109.789062 C 37.8125 109.625 37.804688 109.460938 37.800781 109.292969 C 37.921875 108.617188 38.214844 108.316406 38.671875 107.8125 C 40.355469 106.671875 42.417969 106.140625 44.335938 105.539062 C 45.265625 105.25 46.191406 104.949219 47.117188 104.652344 C 47.402344 104.5625 47.402344 104.5625 47.691406 104.46875 C 50.1875 103.660156 52.660156 102.785156 55.132812 101.910156 C 55.429688 101.804688 55.726562 101.699219 56.023438 101.597656 C 56.640625 101.382812 57.25 101.164062 57.855469 100.921875 C 60.910156 99.75 64.273438 100.550781 67.40625 101.011719 Z M 67.40625 101.011719 "/>
<path style=" stroke:none;fill-rule:nonzero;fill:rgb(99.215686%,99.215686%,99.215686%);fill-opacity:1;" d="M 73.828125 56.128906 C 73.976562 56.148438 74.125 56.167969 74.28125 56.191406 C 79.171875 56.867188 79.171875 56.867188 80.859375 58.789062 C 81.515625 59.730469 81.605469 60.804688 81.445312 61.914062 C 81.101562 63.21875 80.632812 64.078125 79.492188 64.84375 C 78.859375 65.140625 78.859375 65.140625 78.148438 65.394531 C 78.015625 65.441406 77.878906 65.488281 77.742188 65.539062 C 77.285156 65.703125 76.828125 65.859375 76.367188 66.015625 C 76.207031 66.070312 76.042969 66.125 75.878906 66.183594 C 74.722656 66.574219 73.570312 66.953125 72.414062 67.335938 C 71.101562 67.769531 69.792969 68.207031 68.484375 68.644531 C 68.027344 68.796875 67.574219 68.945312 67.117188 69.097656 C 66.972656 69.148438 66.828125 69.195312 66.679688 69.246094 C 66.394531 69.339844 66.113281 69.433594 65.828125 69.527344 C 65.207031 69.734375 64.585938 69.945312 63.964844 70.164062 C 62.097656 70.828125 60.746094 70.699219 58.835938 70.300781 C 56.699219 69.871094 54.554688 69.507812 52.398438 69.164062 C 49.386719 68.683594 46.371094 68.191406 43.367188 67.652344 C 43 67.585938 42.628906 67.523438 42.261719 67.460938 C 41.746094 67.371094 41.230469 67.28125 40.71875 67.1875 C 40.566406 67.160156 40.417969 67.136719 40.261719 67.109375 C 39.21875 66.914062 38.636719 66.582031 37.890625 65.820312 C 37.738281 65.085938 37.804688 64.785156 38.203125 64.152344 C 38.785156 63.554688 39.226562 63.421875 40.027344 63.195312 C 40.164062 63.15625 40.300781 63.117188 40.445312 63.074219 C 40.738281 62.988281 41.035156 62.90625 41.335938 62.824219 C 41.792969 62.695312 42.253906 62.5625 42.710938 62.429688 C 43.570312 62.183594 44.429688 61.941406 45.285156 61.699219 C 50.445312 60.238281 55.589844 58.726562 60.734375 57.214844 C 61.367188 57.027344 61.996094 56.84375 62.625 56.660156 C 63.0625 56.53125 63.5 56.402344 63.9375 56.269531 C 64.203125 56.195312 64.46875 56.117188 64.734375 56.039062 C 64.964844 55.96875 65.195312 55.902344 65.429688 55.832031 C 68.128906 55.058594 71.089844 55.742188 73.828125 56.128906 Z M 73.828125 56.128906 "/>
<path style=" stroke:none;fill-rule:nonzero;fill:rgb(9.019608%,61.960787%,96.078432%);fill-opacity:1;" d="M 135.304688 152.503906 C 135.558594 152.5 135.558594 152.5 135.816406 152.496094 C 138.296875 152.488281 140.871094 153.425781 142.6875 155.164062 C 144.921875 157.597656 146.035156 160.386719 145.945312 163.667969 C 145.808594 166.578125 144.480469 169.027344 142.375 171.007812 C 140.292969 172.726562 138.179688 173.554688 135.5 173.535156 C 135.300781 173.535156 135.101562 173.53125 134.898438 173.53125 C 131.917969 173.460938 129.5625 172.121094 127.515625 169.980469 C 125.796875 167.886719 125.082031 165.675781 125.109375 163 C 125.109375 162.800781 125.113281 162.605469 125.113281 162.402344 C 125.144531 161 125.304688 159.839844 125.976562 158.59375 C 126.046875 158.445312 126.113281 158.296875 126.183594 158.144531 C 127.425781 155.644531 129.59375 153.847656 132.183594 152.875 C 133.242188 152.53125 134.195312 152.503906 135.304688 152.503906 Z M 135.304688 152.503906 "/>
<path style=" stroke:none;fill-rule:nonzero;fill:rgb(91.37255%,92.156863%,92.941177%);fill-opacity:1;" d="M 141.484375 22.078125 C 143.722656 23.769531 145.304688 26.054688 145.820312 28.839844 C 146.203125 32.007812 145.617188 34.679688 143.75 37.304688 C 143.664062 37.429688 143.574219 37.550781 143.484375 37.679688 C 142.195312 39.324219 140.152344 40.652344 138.085938 41.015625 C 134.71875 41.335938 131.84375 41.164062 129.101562 39.0625 C 128.984375 38.980469 128.867188 38.894531 128.746094 38.808594 C 126.628906 37.191406 125.546875 34.605469 125.195312 32.03125 C 124.980469 28.640625 125.832031 25.933594 128.039062 23.347656 C 131.609375 19.636719 137.292969 19.222656 141.484375 22.078125 Z M 141.484375 22.078125 "/>
<path style=" stroke:none;fill-rule:nonzero;fill:rgb(87.058824%,87.843138%,88.627452%);fill-opacity:1;" d="M 78.90625 40.820312 C 78.914062 41.160156 78.917969 41.5 78.921875 41.84375 C 78.925781 42.03125 78.929688 42.222656 78.933594 42.417969 C 78.882812 43.429688 78.535156 44.125 77.820312 44.832031 C 75.59375 46.511719 72.480469 47.285156 69.875 48.144531 C 69.667969 48.214844 69.464844 48.28125 69.253906 48.351562 C 67.203125 49.007812 65.546875 48.785156 63.457031 48.464844 C 57.347656 47.539062 51.203125 46.890625 45.050781 46.3125 C 44.597656 46.269531 44.144531 46.226562 43.691406 46.179688 C 43.046875 46.117188 42.398438 46.0625 41.75 46.003906 C 41.417969 45.976562 41.082031 45.945312 40.746094 45.914062 C 40.515625 45.894531 40.515625 45.894531 40.277344 45.875 C 39.410156 45.792969 38.796875 45.664062 38.085938 45.117188 C 37.761719 44.472656 37.871094 43.75 37.878906 43.042969 C 37.878906 42.886719 37.878906 42.730469 37.882812 42.566406 C 37.882812 42.179688 37.886719 41.792969 37.890625 41.40625 C 42.34375 41.328125 46.796875 41.253906 51.25 41.175781 C 53.320312 41.140625 55.390625 41.105469 57.457031 41.070312 C 59.265625 41.039062 61.070312 41.007812 62.875 40.976562 C 63.828125 40.960938 64.785156 40.945312 65.738281 40.929688 C 70.128906 40.851562 74.515625 40.800781 78.90625 40.820312 Z M 78.90625 40.820312 "/>
<path style=" stroke:none;fill-rule:nonzero;fill:rgb(87.058824%,87.843138%,88.627452%);fill-opacity:1;" d="M 62.023438 146.667969 C 62.34375 146.726562 62.664062 146.789062 62.984375 146.851562 C 63.5 146.945312 64.015625 147.042969 64.53125 147.144531 C 65.925781 147.410156 67.324219 147.667969 68.722656 147.921875 C 68.9375 147.960938 69.148438 148 69.367188 148.039062 C 70.207031 148.195312 71.050781 148.347656 71.894531 148.5 C 80.066406 149.996094 80.066406 149.996094 80.859375 151.097656 C 81.242188 151.695312 81.269531 152.167969 81.261719 152.863281 C 81.257812 153.023438 81.257812 153.179688 81.253906 153.34375 C 81.253906 153.464844 81.25 153.585938 81.25 153.710938 C 78.382812 153.746094 75.511719 153.777344 72.644531 153.808594 C 72.425781 153.8125 72.207031 153.8125 71.980469 153.816406 C 64.070312 153.898438 56.164062 153.921875 48.253906 153.917969 C 48.058594 153.917969 48.058594 153.917969 47.859375 153.917969 C 44.535156 153.917969 41.214844 153.910156 37.890625 153.90625 C 38.042969 152.851562 38.195312 152.476562 39.023438 151.832031 C 39.832031 151.328125 40.699219 151.0625 41.601562 150.78125 C 41.820312 150.710938 42.042969 150.640625 42.269531 150.566406 C 45.050781 149.679688 47.851562 148.863281 50.652344 148.039062 C 51.035156 147.925781 51.414062 147.8125 51.796875 147.703125 C 51.980469 147.648438 52.164062 147.59375 52.355469 147.539062 C 53.300781 147.261719 54.230469 146.960938 55.15625 146.632812 C 57.578125 145.769531 59.570312 146.191406 62.023438 146.667969 Z M 62.023438 146.667969 "/>
<path style=" stroke:none;fill-rule:nonzero;fill:rgb(99.607843%,99.607843%,99.607843%);fill-opacity:1;" d="M 137.40625 26.125 C 137.789062 26.308594 138.128906 26.511719 138.476562 26.757812 C 138.648438 26.867188 138.824219 26.976562 139 27.085938 C 140.085938 28.171875 140.582031 29.378906 140.648438 30.90625 C 140.578125 32.511719 140.03125 33.632812 138.910156 34.78125 C 137.722656 35.804688 136.515625 36.082031 134.960938 36.023438 C 133.515625 35.808594 132.359375 35.109375 131.480469 33.945312 C 130.578125 32.574219 130.460938 31.3125 130.664062 29.6875 C 131.164062 28.066406 132.117188 27.082031 133.554688 26.242188 C 134.734375 25.738281 136.175781 25.753906 137.40625 26.125 Z M 137.40625 26.125 "/>
<path style=" stroke:none;fill-rule:nonzero;fill:rgb(98.823529%,99.215686%,99.607843%);fill-opacity:1;" d="M 138.085938 158.59375 C 139.277344 159.398438 140.085938 160.304688 140.429688 161.71875 C 140.652344 163.417969 140.464844 164.804688 139.453125 166.210938 C 138.515625 167.285156 137.421875 167.847656 136.015625 168.039062 C 134.429688 168.121094 133.21875 167.683594 132.015625 166.640625 C 130.957031 165.53125 130.550781 164.410156 130.382812 162.902344 C 130.445312 161.582031 130.980469 160.367188 131.871094 159.398438 C 133.601562 157.847656 136.015625 157.40625 138.085938 158.59375 Z M 138.085938 158.59375 "/>
<path style=" stroke:none;fill-rule:nonzero;fill:rgb(24.313726%,30.19608%,34.901962%);fill-opacity:1;" d="M 76.5625 33.789062 C 78.625 33.789062 80.6875 33.789062 82.8125 33.789062 C 82.8125 33.851562 82.8125 33.917969 82.8125 33.984375 C 80.34375 34.472656 77.894531 34.414062 75.390625 34.375 C 75.390625 34.3125 75.390625 34.246094 75.390625 34.179688 C 75.777344 34.117188 76.164062 34.050781 76.5625 33.984375 C 76.5625 33.921875 76.5625 33.855469 76.5625 33.789062 Z M 76.5625 33.789062 "/>
<path style=" stroke:none;fill-rule:nonzero;fill:rgb(16.078432%,18.431373%,22.352941%);fill-opacity:1;" d="M 143.75 169.335938 C 143.75 169.984375 143.71875 170.175781 143.359375 170.703125 C 142.921875 171.058594 142.464844 171.371094 141.992188 171.679688 C 141.863281 171.617188 141.734375 171.550781 141.601562 171.484375 C 142.3125 170.773438 143.019531 170.066406 143.75 169.335938 Z M 143.75 169.335938 "/>
<path style=" stroke:none;fill-rule:nonzero;fill:rgb(17.647059%,20%,22.745098%);fill-opacity:1;" d="M 126.5625 157.03125 C 126.625 157.160156 126.691406 157.289062 126.757812 157.421875 C 126.519531 157.972656 126.519531 157.972656 126.183594 158.617188 C 126.074219 158.832031 125.964844 159.046875 125.847656 159.265625 C 125.761719 159.429688 125.675781 159.597656 125.585938 159.765625 C 125.523438 159.765625 125.457031 159.765625 125.390625 159.765625 C 125.316406 158.679688 125.316406 158.679688 125.648438 158.289062 C 125.753906 158.195312 125.863281 158.101562 125.976562 158.007812 C 126.179688 157.6875 126.375 157.363281 126.5625 157.03125 Z M 126.5625 157.03125 "/>
<path style=" stroke:none;fill-rule:nonzero;fill:rgb(16.470589%,21.960784%,27.450982%);fill-opacity:1;" d="M 152.148438 25.390625 C 152.34375 25.488281 152.34375 25.488281 152.539062 25.585938 C 152.632812 25.976562 152.632812 25.976562 152.6875 26.453125 C 152.703125 26.609375 152.722656 26.765625 152.742188 26.929688 C 152.734375 27.34375 152.734375 27.34375 152.34375 27.734375 C 152.152344 26.941406 152.132812 26.203125 152.148438 25.390625 Z M 152.148438 25.390625 "/>
<path style=" stroke:none;fill-rule:nonzero;fill:rgb(12.941177%,19.607843%,25.098041%);fill-opacity:1;" d="M 41.40625 96.289062 C 41.40625 96.417969 41.40625 96.546875 41.40625 96.679688 C 41.792969 96.679688 42.179688 96.679688 42.578125 96.679688 C 42.578125 96.742188 42.578125 96.808594 42.578125 96.875 C 42.296875 96.886719 42.015625 96.894531 41.734375 96.898438 C 41.578125 96.902344 41.421875 96.910156 41.261719 96.914062 C 40.820312 96.875 40.820312 96.875 40.234375 96.484375 C 40.625 96.289062 40.625 96.289062 41.40625 96.289062 Z M 41.40625 96.289062 "/>
<path style=" stroke:none;fill-rule:nonzero;fill:rgb(14.117648%,20.784314%,26.274511%);fill-opacity:1;" d="M 46.09375 54.882812 C 45.898438 54.945312 45.707031 55.011719 45.507812 55.078125 C 45.507812 55.207031 45.507812 55.335938 45.507812 55.46875 C 45.152344 55.589844 45.152344 55.589844 44.726562 55.664062 C 44.53125 55.535156 44.339844 55.40625 44.140625 55.273438 C 44.824219 54.960938 45.339844 54.839844 46.09375 54.882812 Z M 46.09375 54.882812 "/>
<path style=" stroke:none;fill-rule:nonzero;fill:rgb(12.54902%,18.431373%,23.529412%);fill-opacity:1;" d="M 142.1875 38.671875 C 142.316406 38.734375 142.445312 38.800781 142.578125 38.867188 C 142.375 39.378906 142.257812 39.609375 141.773438 39.890625 C 141.652344 39.941406 141.53125 39.988281 141.40625 40.039062 C 141.277344 39.910156 141.148438 39.78125 141.015625 39.648438 C 141.402344 39.328125 141.789062 39.003906 142.1875 38.671875 Z M 142.1875 38.671875 "/>
<path style=" stroke:none;fill-rule:nonzero;fill:rgb(12.54902%,18.039216%,23.921569%);fill-opacity:1;" d="M 112.695312 51.171875 C 112.890625 51.5625 112.890625 51.5625 112.730469 52.148438 C 112.5 52.734375 112.5 52.734375 112.109375 53.125 C 112.257812 51.832031 112.257812 51.832031 112.695312 51.171875 Z M 112.695312 51.171875 "/>
<path style=" stroke:none;fill-rule:nonzero;fill:rgb(25.098041%,30.980393%,36.078432%);fill-opacity:1;" d="M 85.742188 41.40625 C 86.132812 41.796875 86.132812 41.796875 86.15625 42.40625 C 86.148438 42.59375 86.140625 42.777344 86.132812 42.96875 C 85.9375 43.03125 85.746094 43.097656 85.546875 43.164062 C 85.523438 41.84375 85.523438 41.84375 85.742188 41.40625 Z M 85.742188 41.40625 "/>
</g>
</svg>
