<?xml version="1.0" encoding="UTF-8"?>
<svg xmlns="http://www.w3.org/2000/svg" xmlns:xlink="http://www.w3.org/1999/xlink" width="200px" height="200px" viewBox="0 0 200 200" version="1.1">
<g id="surface1">
<path style=" stroke:none;fill-rule:nonzero;fill:rgb(99.607843%,99.607843%,99.607843%);fill-opacity:1;" d="M 0 0 C 66 0 132 0 200 0 C 200 66 200 132 200 200 C 134 200 68 200 0 200 C 0 134 0 68 0 0 Z M 0 0 "/>
<path style=" stroke:none;fill-rule:nonzero;fill:rgb(12.941177%,78.431374%,21.176471%);fill-opacity:1;" d="M 101.171875 11.71875 C 102.308594 12.363281 102.777344 13.539062 103.367188 14.648438 C 103.613281 15.09375 103.855469 15.535156 104.097656 15.980469 C 104.164062 16.09375 104.226562 16.207031 104.292969 16.328125 C 105.003906 17.613281 105.765625 18.863281 106.53125 20.117188 C 106.671875 20.347656 106.8125 20.578125 106.957031 20.8125 C 107.167969 21.15625 107.378906 21.5 107.589844 21.847656 C 108.289062 22.992188 108.980469 24.140625 109.667969 25.292969 C 110.449219 26.59375 111.230469 27.894531 112.019531 29.191406 C 112.132812 29.378906 112.132812 29.378906 112.246094 29.566406 C 112.609375 30.160156 112.972656 30.757812 113.335938 31.351562 C 115.632812 35.125 115.632812 35.125 115.429688 36.328125 C 114.976562 37.214844 114.417969 37.914062 113.476562 38.28125 C 112.597656 38.382812 111.726562 38.363281 110.839844 38.34375 C 110.605469 38.339844 110.375 38.339844 110.136719 38.335938 C 108.503906 38.316406 106.910156 38.203125 105.273438 38.085938 C 105.273438 45.882812 105.273438 53.683594 105.273438 61.71875 C 108.777344 61.300781 108.777344 61.300781 112.195312 60.582031 C 112.390625 60.53125 112.582031 60.484375 112.78125 60.429688 C 115.839844 59.613281 120.527344 58.347656 122.300781 55.488281 C 122.601562 54.71875 122.5625 53.9375 122.460938 53.125 C 122 52.148438 121.265625 51.476562 120.3125 50.976562 C 120.117188 50.976562 119.925781 50.976562 119.726562 50.976562 C 119.339844 51.75 118.953125 52.523438 118.554688 53.320312 C 117.457031 53.101562 117.457031 53.101562 116.980469 52.414062 C 116.828125 52.191406 116.828125 52.191406 116.667969 51.964844 C 116.5625 51.808594 116.457031 51.652344 116.34375 51.488281 C 116.121094 51.167969 115.898438 50.84375 115.671875 50.523438 C 115.566406 50.367188 115.457031 50.207031 115.347656 50.046875 C 115.082031 49.671875 114.8125 49.308594 114.527344 48.945312 C 113.515625 47.652344 113.515625 47.652344 113.328125 46.703125 C 113.503906 45.980469 113.753906 45.660156 114.257812 45.117188 C 115.898438 44.148438 117.910156 43.730469 119.738281 43.234375 C 120.21875 43.101562 120.699219 42.96875 121.179688 42.835938 C 121.488281 42.75 121.792969 42.664062 122.101562 42.582031 C 122.3125 42.519531 122.3125 42.519531 122.53125 42.460938 C 123.191406 42.28125 123.726562 42.1875 124.414062 42.1875 C 124.238281 43.007812 123.847656 43.667969 123.425781 44.382812 C 123.351562 44.511719 123.277344 44.636719 123.203125 44.769531 C 123.019531 45.082031 122.839844 45.390625 122.65625 45.703125 C 122.800781 45.753906 122.945312 45.808594 123.09375 45.859375 C 125.070312 46.714844 126.859375 48.554688 127.742188 50.5 C 128.640625 52.773438 128.433594 54.765625 127.539062 57.03125 C 125.484375 61.347656 120.972656 63.796875 116.648438 65.34375 C 116.179688 65.507812 115.707031 65.664062 115.234375 65.820312 C 115.023438 65.890625 115.023438 65.890625 114.804688 65.960938 C 111.746094 66.941406 108.484375 67.578125 105.273438 67.578125 C 105.335938 77.890625 105.402344 88.203125 105.46875 98.828125 C 106.953125 99.664062 108.433594 100.503906 109.960938 101.367188 C 111.101562 102.046875 112.242188 102.730469 113.378906 103.417969 C 114.207031 103.914062 115.039062 104.40625 115.867188 104.894531 C 119.972656 107.316406 124.070312 109.738281 128.136719 112.21875 C 129.167969 112.847656 130.199219 113.472656 131.25 114.0625 C 131.320312 113.824219 131.320312 113.824219 131.390625 113.582031 C 131.695312 112.746094 132.097656 112.003906 132.53125 111.230469 C 132.617188 111.074219 132.707031 110.921875 132.796875 110.761719 C 133.59375 109.351562 134.441406 107.980469 135.351562 106.640625 C 135.464844 106.472656 135.464844 106.472656 135.582031 106.300781 C 139.101562 101.15625 144.335938 94.863281 150.769531 93.429688 C 153.070312 93.15625 155.285156 93.152344 157.421875 94.140625 C 157.574219 94.210938 157.726562 94.277344 157.886719 94.347656 C 160.761719 95.785156 162.75 98.582031 163.8125 101.5625 C 164.761719 104.441406 165.101562 107.136719 165.039062 110.15625 C 165.261719 110.152344 165.484375 110.152344 165.714844 110.148438 C 166.007812 110.148438 166.296875 110.144531 166.589844 110.144531 C 166.738281 110.140625 166.882812 110.140625 167.035156 110.140625 C 167.410156 110.136719 167.789062 110.144531 168.164062 110.15625 C 168.359375 110.351562 168.359375 110.351562 168.425781 110.847656 C 168.335938 111.765625 167.957031 112.363281 167.480469 113.132812 C 167.390625 113.28125 167.304688 113.429688 167.210938 113.578125 C 166.234375 115.167969 165.121094 116.585938 163.773438 117.878906 C 163.449219 118.183594 163.449219 118.183594 163.074219 118.628906 C 162.542969 119.074219 162.214844 119.15625 161.523438 119.140625 C 160.542969 118.453125 159.980469 117.683594 159.375 116.664062 C 159.289062 116.523438 159.207031 116.386719 159.121094 116.242188 C 158.953125 115.96875 158.789062 115.691406 158.625 115.414062 C 158.429688 115.09375 158.234375 114.773438 158.039062 114.457031 C 156.292969 111.605469 156.292969 111.605469 156.445312 110.351562 C 156.640625 110.15625 156.640625 110.15625 157.34375 110.136719 C 157.632812 110.136719 157.925781 110.140625 158.214844 110.144531 C 158.363281 110.144531 158.511719 110.144531 158.664062 110.148438 C 159.03125 110.148438 159.398438 110.152344 159.765625 110.15625 C 159.261719 104.628906 159.261719 104.628906 156.445312 100 C 155.136719 99.085938 153.914062 98.867188 152.34375 99.023438 C 146.332031 100.480469 142.1875 106.75 139.136719 111.695312 C 138.050781 113.480469 137.082031 115.328125 136.132812 117.1875 C 136.273438 117.242188 136.417969 117.296875 136.566406 117.351562 C 137.074219 117.5625 137.53125 117.804688 138.011719 118.082031 C 138.1875 118.1875 138.363281 118.289062 138.542969 118.394531 C 138.734375 118.507812 138.925781 118.621094 139.125 118.738281 C 139.328125 118.855469 139.53125 118.976562 139.738281 119.097656 C 142.128906 120.503906 144.511719 121.921875 146.894531 123.335938 C 148.15625 124.089844 149.417969 124.835938 150.683594 125.585938 C 151.109375 125.835938 151.53125 126.089844 151.957031 126.339844 C 152.824219 126.855469 153.695312 127.371094 154.5625 127.882812 C 155.136719 128.222656 155.710938 128.5625 156.28125 128.902344 C 156.558594 129.066406 156.835938 129.230469 157.113281 129.394531 C 157.5 129.621094 157.886719 129.851562 158.273438 130.082031 C 158.386719 130.148438 158.5 130.214844 158.621094 130.285156 C 159.34375 130.714844 160.046875 131.167969 160.742188 131.640625 C 160.792969 131.476562 160.839844 131.316406 160.890625 131.148438 C 161.164062 130.382812 161.507812 129.695312 161.890625 128.980469 C 161.957031 128.851562 162.023438 128.722656 162.089844 128.59375 C 162.980469 126.921875 162.980469 126.921875 163.894531 126.617188 C 164.902344 126.515625 165.542969 126.546875 166.40625 127.148438 C 167.21875 128.039062 167.753906 129.089844 168.335938 130.140625 C 168.5625 130.546875 168.789062 130.949219 169.015625 131.355469 C 169.132812 131.566406 169.25 131.773438 169.371094 131.988281 C 170.378906 133.773438 171.421875 135.539062 172.460938 137.304688 C 172.5625 137.480469 172.667969 137.652344 172.773438 137.835938 C 173.816406 139.613281 174.867188 141.386719 175.933594 143.152344 C 176.015625 143.285156 176.09375 143.417969 176.175781 143.554688 C 176.578125 144.21875 176.976562 144.882812 177.378906 145.542969 C 177.523438 145.789062 177.671875 146.03125 177.816406 146.273438 C 177.945312 146.488281 178.078125 146.703125 178.210938 146.925781 C 178.703125 147.789062 178.792969 148.429688 178.710938 149.414062 C 178.386719 150.351562 177.902344 150.933594 177.007812 151.410156 C 176.027344 151.742188 174.980469 151.605469 173.960938 151.550781 C 173.695312 151.539062 173.425781 151.527344 173.15625 151.515625 C 170.132812 151.382812 167.109375 151.183594 164.089844 150.996094 C 161.679688 150.84375 159.273438 150.710938 156.859375 150.644531 C 152.75 150.523438 152.75 150.523438 151.757812 149.609375 C 151.226562 149.027344 151.121094 148.5625 151.144531 147.792969 C 151.316406 146.285156 152.285156 145.125 153.136719 143.921875 C 153.304688 143.675781 153.472656 143.429688 153.644531 143.183594 C 154.050781 142.589844 154.464844 141.996094 154.882812 141.40625 C 154.464844 140.957031 154.050781 140.644531 153.519531 140.339844 C 153.359375 140.246094 153.199219 140.152344 153.035156 140.054688 C 152.773438 139.902344 152.773438 139.902344 152.503906 139.746094 C 152.113281 139.515625 151.71875 139.289062 151.328125 139.058594 C 151.117188 138.933594 150.902344 138.808594 150.683594 138.683594 C 149.4375 137.953125 148.191406 137.210938 146.949219 136.476562 C 146.816406 136.394531 146.683594 136.316406 146.546875 136.238281 C 144.515625 135.03125 142.492188 133.808594 140.472656 132.578125 C 139.0625 131.714844 137.648438 130.875 136.203125 130.074219 C 134.855469 129.332031 133.542969 128.535156 132.226562 127.734375 C 130.25 132.257812 129.640625 137.414062 129.625 142.308594 C 129.625 142.441406 129.625 142.574219 129.625 142.710938 C 129.617188 145.730469 129.828125 148.96875 132.0625 151.246094 C 133.621094 152.617188 135.324219 152.464844 137.304688 152.34375 C 137.632812 152.289062 137.957031 152.226562 138.28125 152.148438 C 138.207031 152.03125 138.136719 151.917969 138.0625 151.796875 C 137.96875 151.644531 137.875 151.488281 137.78125 151.332031 C 137.6875 151.179688 137.59375 151.027344 137.5 150.871094 C 137.261719 150.289062 137.300781 150.003906 137.5 149.414062 C 138.207031 148.707031 139.34375 148.683594 140.304688 148.492188 C 140.703125 148.414062 141.101562 148.332031 141.496094 148.25 C 144.746094 147.589844 144.746094 147.589844 145.898438 147.851562 C 146.308594 148.25 146.46875 148.488281 146.527344 149.0625 C 146.347656 150.632812 146.007812 152.152344 145.640625 153.683594 C 145.53125 154.125 145.429688 154.570312 145.324219 155.011719 C 144.988281 156.421875 144.632812 157.8125 144.140625 159.179688 C 143.703125 159.246094 143.703125 159.246094 143.164062 159.179688 C 142.726562 158.710938 142.726562 158.710938 142.320312 158.105469 C 142.1875 157.90625 142.050781 157.707031 141.910156 157.5 C 141.808594 157.347656 141.707031 157.191406 141.601562 157.03125 C 141.460938 157.082031 141.316406 157.136719 141.171875 157.1875 C 137.582031 158.449219 134.132812 158.652344 130.617188 157.007812 C 127.636719 155.417969 125.890625 152.957031 124.804688 149.804688 C 124.542969 148.839844 124.367188 147.863281 124.21875 146.875 C 124.183594 146.652344 124.148438 146.429688 124.109375 146.203125 C 123.226562 138.820312 124.9375 131.457031 126.953125 124.414062 C 126.824219 124.339844 126.695312 124.265625 126.566406 124.191406 C 123.984375 122.714844 121.417969 121.21875 118.871094 119.683594 C 117.296875 118.734375 115.710938 117.796875 114.125 116.871094 C 113.941406 116.765625 113.941406 116.765625 113.757812 116.65625 C 113.28125 116.378906 112.804688 116.097656 112.324219 115.820312 C 110.765625 114.90625 109.210938 113.984375 107.652344 113.0625 C 107.046875 112.703125 106.441406 112.347656 105.832031 111.988281 C 105.257812 111.648438 104.6875 111.308594 104.113281 110.96875 C 103.832031 110.804688 103.546875 110.636719 103.265625 110.46875 C 102.867188 110.234375 102.46875 110 102.074219 109.765625 C 101.894531 109.660156 101.894531 109.660156 101.714844 109.550781 C 101.398438 109.367188 101.089844 109.175781 100.78125 108.984375 C 100.628906 108.902344 100.472656 108.820312 100.316406 108.734375 C 99.816406 108.203125 99.902344 107.617188 99.921875 106.929688 C 99.925781 106.789062 99.925781 106.648438 99.925781 106.5 C 99.929688 106.046875 99.941406 105.59375 99.953125 105.140625 C 99.957031 104.832031 99.957031 104.523438 99.960938 104.214844 C 99.96875 103.460938 99.984375 102.707031 100 101.953125 C 99.859375 101.898438 99.714844 101.847656 99.570312 101.792969 C 99.042969 101.570312 98.578125 101.320312 98.085938 101.023438 C 97.914062 100.921875 97.746094 100.820312 97.566406 100.714844 C 97.390625 100.605469 97.214844 100.5 97.035156 100.390625 C 96.855469 100.285156 96.675781 100.175781 96.492188 100.066406 C 95.167969 99.269531 95.167969 99.269531 94.726562 98.828125 C 94.679688 98.292969 94.679688 98.292969 94.679688 97.59375 C 94.679688 97.46875 94.679688 97.339844 94.679688 97.207031 C 94.679688 96.777344 94.679688 96.347656 94.683594 95.914062 C 94.683594 95.605469 94.683594 95.300781 94.683594 94.992188 C 94.683594 94.152344 94.683594 93.316406 94.6875 92.476562 C 94.6875 91.601562 94.691406 90.730469 94.691406 89.855469 C 94.691406 88.195312 94.695312 86.539062 94.699219 84.882812 C 94.703125 82.996094 94.703125 81.109375 94.707031 79.222656 C 94.710938 75.339844 94.71875 71.460938 94.726562 67.578125 C 94.609375 67.578125 94.488281 67.578125 94.367188 67.582031 C 94.207031 67.582031 94.050781 67.582031 93.890625 67.582031 C 93.734375 67.582031 93.578125 67.585938 93.417969 67.585938 C 92.332031 67.566406 91.257812 67.34375 90.1875 67.164062 C 90.058594 67.140625 89.929688 67.121094 89.796875 67.097656 C 84.5625 66.210938 78.804688 64.613281 74.804688 60.9375 C 74.652344 60.800781 74.496094 60.660156 74.335938 60.519531 C 72.476562 58.761719 71.105469 56.519531 71.011719 53.914062 C 70.992188 51.316406 71.742188 49.191406 73.523438 47.265625 C 75.269531 45.632812 77.347656 44.476562 79.480469 43.433594 C 79.652344 43.347656 79.820312 43.261719 80 43.171875 C 81.058594 42.671875 81.832031 42.453125 83.007812 42.578125 C 83.800781 42.988281 84.238281 43.316406 84.570312 44.140625 C 84.644531 44.558594 84.644531 44.558594 84.65625 44.996094 C 84.667969 45.207031 84.667969 45.207031 84.679688 45.425781 C 84.515625 46.140625 84.132812 46.597656 83.59375 47.070312 C 83.023438 47.414062 82.425781 47.675781 81.8125 47.9375 C 78.710938 49.324219 78.710938 49.324219 76.488281 51.820312 C 76.203125 53.046875 76.488281 54.214844 77.148438 55.273438 C 79.738281 59.078125 86.238281 60.304688 90.429688 61.132812 C 91.847656 61.328125 93.265625 61.519531 94.726562 61.71875 C 94.726562 53.921875 94.726562 46.121094 94.726562 38.085938 C 93.890625 38.085938 93.050781 38.085938 92.1875 38.085938 C 91.28125 38.078125 90.371094 38.058594 89.464844 38.039062 C 89.234375 38.035156 89.003906 38.03125 88.769531 38.027344 C 87.519531 37.992188 86.683594 37.964844 85.742188 37.109375 C 85.296875 36.539062 85.257812 35.917969 85.277344 35.203125 C 85.5625 33.496094 86.902344 31.816406 87.78125 30.359375 C 88.96875 28.375 90.117188 26.378906 91.238281 24.355469 C 91.859375 23.238281 92.492188 22.128906 93.152344 21.03125 C 94.175781 19.324219 95.101562 17.5625 96.023438 15.796875 C 98.574219 10.976562 98.574219 10.976562 101.171875 11.71875 Z M 101.171875 11.71875 "/>
<path style=" stroke:none;fill-rule:nonzero;fill:rgb(99.607843%,29.019609%,22.745098%);fill-opacity:1;" d="M 94.921875 98.953125 C 95.050781 99.039062 95.179688 99.128906 95.3125 99.21875 C 95.464844 99.300781 95.613281 99.386719 95.769531 99.472656 C 95.933594 99.566406 96.097656 99.660156 96.265625 99.757812 C 96.535156 99.910156 96.535156 99.910156 96.808594 100.066406 C 96.996094 100.175781 97.183594 100.28125 97.375 100.390625 C 97.5625 100.496094 97.75 100.605469 97.941406 100.714844 C 98.121094 100.816406 98.300781 100.917969 98.488281 101.023438 C 98.652344 101.117188 98.816406 101.210938 98.984375 101.308594 C 99.328125 101.511719 99.667969 101.730469 100 101.953125 C 100.074219 102.4375 100.109375 102.871094 100.117188 103.359375 C 100.125 103.570312 100.125 103.570312 100.128906 103.785156 C 100.132812 104.078125 100.136719 104.375 100.140625 104.671875 C 100.144531 105.125 100.164062 105.574219 100.183594 106.023438 C 100.230469 108.113281 100.230469 108.113281 99.648438 108.835938 C 99.191406 109.140625 98.75 109.359375 98.242188 109.570312 C 98.003906 109.707031 97.769531 109.851562 97.535156 109.996094 C 97.296875 110.136719 97.054688 110.273438 96.8125 110.414062 C 95.28125 111.304688 93.761719 112.222656 92.25 113.148438 C 90.59375 114.15625 88.9375 115.15625 87.269531 116.136719 C 84.441406 117.800781 81.632812 119.484375 78.832031 121.1875 C 78.710938 121.261719 78.589844 121.335938 78.464844 121.410156 C 77.878906 121.769531 77.292969 122.125 76.707031 122.480469 C 75.300781 123.335938 73.886719 124.175781 72.460938 125 C 72.574219 125.746094 72.722656 126.453125 72.945312 127.175781 C 73.003906 127.363281 73.0625 127.550781 73.121094 127.742188 C 73.210938 128.039062 73.210938 128.039062 73.304688 128.34375 C 73.753906 129.855469 74.167969 131.363281 74.476562 132.910156 C 74.503906 133.050781 74.53125 133.195312 74.5625 133.339844 C 75.046875 135.886719 75.261719 138.390625 75.246094 140.980469 C 75.242188 141.433594 75.246094 141.882812 75.25 142.335938 C 75.253906 147.40625 74.242188 152.527344 70.664062 156.316406 C 68.519531 158.402344 65.964844 159.253906 63.023438 159.214844 C 62.828125 159.214844 62.632812 159.214844 62.433594 159.214844 C 60.992188 159.207031 60.992188 159.207031 60.546875 158.984375 C 60.554688 159.226562 60.5625 159.46875 60.570312 159.71875 C 60.574219 160.355469 60.519531 160.785156 60.15625 161.328125 C 58.566406 161.050781 57.429688 159.375 56.445312 158.203125 C 56.273438 158.003906 56.097656 157.804688 55.921875 157.609375 C 53.089844 154.363281 53.089844 154.363281 53.003906 152.757812 C 53.046875 152.171875 53.117188 151.96875 53.453125 151.464844 C 55.027344 150.445312 57.792969 150.765625 59.644531 150.746094 C 59.882812 150.742188 60.121094 150.738281 60.367188 150.734375 C 60.9375 150.78125 60.9375 150.78125 61.328125 151.171875 C 61.367188 151.765625 61.367188 151.765625 61.351562 152.464844 C 61.347656 152.699219 61.34375 152.929688 61.34375 153.167969 C 61.335938 153.347656 61.332031 153.527344 61.328125 153.710938 C 63.300781 153.796875 65.234375 153.8125 66.859375 152.550781 C 69.40625 150.027344 69.59375 146.074219 69.628906 142.703125 C 69.640625 137.949219 68.84375 133.5 67.496094 128.941406 C 67.382812 128.515625 67.382812 128.515625 67.382812 128.125 C 65.6875 129.082031 64.011719 130.0625 62.351562 131.078125 C 61.757812 131.441406 61.164062 131.804688 60.566406 132.167969 C 60.449219 132.238281 60.328125 132.3125 60.207031 132.386719 C 59.140625 133.03125 58.070312 133.667969 56.996094 134.300781 C 55.476562 135.195312 53.964844 136.09375 52.453125 137 C 52.253906 137.121094 52.050781 137.242188 51.84375 137.367188 C 50.792969 137.996094 49.75 138.628906 48.707031 139.269531 C 48.5 139.398438 48.292969 139.523438 48.078125 139.65625 C 47.683594 139.898438 47.285156 140.144531 46.890625 140.386719 C 46.714844 140.496094 46.539062 140.605469 46.355469 140.714844 C 46.203125 140.8125 46.046875 140.90625 45.886719 141.007812 C 45.507812 141.210938 45.507812 141.210938 45.117188 141.210938 C 45.847656 142.59375 46.695312 143.847656 47.617188 145.109375 C 48.464844 146.285156 48.960938 147.113281 48.75 148.589844 C 48.550781 149.328125 48.214844 149.675781 47.65625 150.195312 C 46.710938 150.726562 45.679688 150.660156 44.625 150.683594 C 44.3125 150.691406 44.3125 150.691406 43.996094 150.703125 C 43.3125 150.71875 42.628906 150.734375 41.945312 150.753906 C 41.46875 150.765625 40.996094 150.777344 40.519531 150.789062 C 39.265625 150.824219 38.011719 150.855469 36.753906 150.882812 C 35.734375 150.910156 34.714844 150.9375 33.691406 150.964844 C 31.578125 151.019531 29.464844 151.074219 27.351562 151.125 C 27.160156 151.128906 26.964844 151.132812 26.765625 151.140625 C 26.242188 151.152344 25.71875 151.164062 25.195312 151.171875 C 25.03125 151.175781 24.867188 151.179688 24.695312 151.183594 C 24.542969 151.183594 24.386719 151.1875 24.226562 151.1875 C 24.023438 151.191406 24.023438 151.191406 23.816406 151.195312 C 22.847656 151.136719 22.207031 150.707031 21.496094 150.085938 C 21.023438 149.429688 20.894531 148.847656 20.941406 148.046875 C 21.257812 146.828125 22.03125 145.8125 22.738281 144.789062 C 23.0625 144.316406 23.378906 143.839844 23.695312 143.359375 C 24.15625 142.664062 24.621094 141.972656 25.082031 141.28125 C 26.65625 138.929688 28.183594 136.550781 29.699219 134.167969 C 29.8125 133.988281 29.925781 133.8125 30.042969 133.628906 C 30.601562 132.75 31.15625 131.867188 31.707031 130.984375 C 31.8125 130.816406 31.914062 130.648438 32.023438 130.476562 C 32.214844 130.164062 32.410156 129.855469 32.601562 129.542969 C 34.148438 127.0625 34.148438 127.0625 35.351562 126.5625 C 35.777344 126.546875 35.777344 126.546875 36.21875 126.597656 C 36.433594 126.621094 36.433594 126.621094 36.65625 126.644531 C 37.363281 126.820312 37.882812 127.046875 38.304688 127.664062 C 38.519531 128.0625 38.714844 128.460938 38.902344 128.871094 C 38.96875 129.007812 39.039062 129.144531 39.105469 129.285156 C 39.476562 130.054688 39.789062 130.820312 40.039062 131.640625 C 42.273438 130.394531 44.453125 129.0625 46.632812 127.730469 C 47.621094 127.128906 48.609375 126.527344 49.59375 125.929688 C 49.941406 125.71875 50.285156 125.507812 50.632812 125.300781 C 51.449219 124.804688 52.269531 124.304688 53.085938 123.808594 C 53.902344 123.316406 54.714844 122.820312 55.53125 122.328125 C 55.640625 122.257812 55.753906 122.191406 55.871094 122.121094 C 58.148438 120.738281 60.421875 119.355469 62.695312 117.96875 C 62.121094 116.75 61.507812 115.636719 60.691406 114.5625 C 60.601562 114.4375 60.507812 114.3125 60.410156 114.183594 C 59.574219 113.074219 58.714844 111.992188 57.8125 110.9375 C 57.644531 110.742188 57.480469 110.546875 57.308594 110.347656 C 55.699219 108.503906 53.917969 107.09375 51.734375 105.980469 C 51.609375 105.917969 51.484375 105.855469 51.359375 105.789062 C 49.664062 104.96875 48.0625 104.585938 46.179688 104.601562 C 46.007812 104.597656 45.835938 104.59375 45.65625 104.589844 C 44.023438 104.589844 42.566406 105.121094 41.347656 106.230469 C 40.300781 107.523438 39.675781 109.148438 39.257812 110.742188 C 39.390625 110.710938 39.523438 110.679688 39.65625 110.644531 C 40.332031 110.53125 40.96875 110.519531 41.648438 110.523438 C 41.894531 110.523438 42.136719 110.519531 42.386719 110.519531 C 42.96875 110.546875 42.96875 110.546875 43.164062 110.742188 C 43.089844 111.917969 42.691406 112.855469 42.199219 113.914062 C 42.121094 114.085938 42.046875 114.253906 41.964844 114.425781 C 41.394531 115.65625 40.796875 116.871094 40.171875 118.078125 C 40.09375 118.234375 40.015625 118.390625 39.933594 118.554688 C 39.207031 119.933594 39.207031 119.933594 38.476562 120.3125 C 37.617188 120.351562 37.179688 120.054688 36.558594 119.507812 C 36.425781 119.382812 36.292969 119.257812 36.15625 119.128906 C 35.753906 118.761719 35.339844 118.449219 34.898438 118.128906 C 33.183594 116.796875 31.832031 115.082031 30.515625 113.367188 C 30.414062 113.230469 30.308594 113.097656 30.199219 112.957031 C 29.945312 112.621094 29.71875 112.269531 29.492188 111.914062 C 29.589844 111.625 29.589844 111.625 29.6875 111.328125 C 31.039062 111.328125 32.394531 111.328125 33.789062 111.328125 C 33.789062 110.875 33.789062 110.425781 33.789062 109.960938 C 34.476562 106.289062 36.246094 103.257812 39.296875 101.058594 C 42.210938 99.160156 45.769531 98.578125 49.164062 99.242188 C 56.5 100.84375 62.132812 106.214844 66.117188 112.371094 C 66.625 113.183594 67.109375 114.007812 67.578125 114.84375 C 69.046875 114.0625 70.472656 113.234375 71.890625 112.367188 C 72.488281 112 73.085938 111.636719 73.683594 111.273438 C 73.808594 111.195312 73.929688 111.121094 74.058594 111.042969 C 75.421875 110.210938 76.792969 109.390625 78.160156 108.570312 C 78.34375 108.460938 78.34375 108.460938 78.53125 108.347656 C 79.136719 107.984375 79.742188 107.621094 80.347656 107.257812 C 81.25 106.71875 82.152344 106.179688 83.050781 105.636719 C 83.464844 105.390625 83.878906 105.140625 84.292969 104.894531 C 85.105469 104.40625 85.917969 103.917969 86.726562 103.429688 C 88.824219 102.164062 90.941406 100.933594 93.058594 99.703125 C 93.566406 99.417969 93.566406 99.417969 94.058594 99.058594 C 94.53125 98.828125 94.53125 98.828125 94.921875 98.953125 Z M 94.921875 98.953125 "/>
<path style=" stroke:none;fill-rule:nonzero;fill:rgb(9.411765%,51.764709%,78.039217%);fill-opacity:1;" d="M 101.171875 11.71875 C 102.308594 12.363281 102.777344 13.539062 103.367188 14.648438 C 103.613281 15.09375 103.855469 15.535156 104.097656 15.980469 C 104.164062 16.09375 104.226562 16.207031 104.292969 16.328125 C 105.003906 17.613281 105.765625 18.863281 106.53125 20.117188 C 106.671875 20.347656 106.8125 20.578125 106.957031 20.8125 C 107.167969 21.15625 107.378906 21.5 107.589844 21.847656 C 108.289062 22.992188 108.980469 24.140625 109.667969 25.292969 C 110.449219 26.59375 111.230469 27.894531 112.019531 29.191406 C 112.132812 29.378906 112.132812 29.378906 112.246094 29.566406 C 112.609375 30.160156 112.972656 30.757812 113.335938 31.351562 C 115.632812 35.125 115.632812 35.125 115.429688 36.328125 C 114.976562 37.214844 114.417969 37.914062 113.476562 38.28125 C 112.597656 38.382812 111.726562 38.363281 110.839844 38.34375 C 110.605469 38.339844 110.375 38.339844 110.136719 38.335938 C 108.503906 38.316406 106.910156 38.203125 105.273438 38.085938 C 105.273438 45.882812 105.273438 53.683594 105.273438 61.71875 C 108.777344 61.300781 108.777344 61.300781 112.195312 60.582031 C 112.390625 60.53125 112.582031 60.484375 112.78125 60.429688 C 115.839844 59.613281 120.527344 58.347656 122.300781 55.488281 C 122.601562 54.71875 122.5625 53.9375 122.460938 53.125 C 122 52.148438 121.265625 51.476562 120.3125 50.976562 C 120.117188 50.976562 119.925781 50.976562 119.726562 50.976562 C 119.339844 51.75 118.953125 52.523438 118.554688 53.320312 C 117.457031 53.101562 117.457031 53.101562 116.980469 52.414062 C 116.828125 52.191406 116.828125 52.191406 116.667969 51.964844 C 116.5625 51.808594 116.457031 51.652344 116.34375 51.488281 C 116.121094 51.167969 115.898438 50.84375 115.671875 50.523438 C 115.566406 50.367188 115.457031 50.207031 115.347656 50.046875 C 115.082031 49.671875 114.8125 49.308594 114.527344 48.945312 C 113.515625 47.652344 113.515625 47.652344 113.328125 46.703125 C 113.503906 45.980469 113.753906 45.660156 114.257812 45.117188 C 115.898438 44.148438 117.910156 43.730469 119.738281 43.234375 C 120.21875 43.101562 120.699219 42.96875 121.179688 42.835938 C 121.488281 42.75 121.792969 42.664062 122.101562 42.582031 C 122.3125 42.519531 122.3125 42.519531 122.53125 42.460938 C 123.191406 42.28125 123.726562 42.1875 124.414062 42.1875 C 124.238281 43.007812 123.847656 43.667969 123.425781 44.382812 C 123.351562 44.511719 123.277344 44.636719 123.203125 44.769531 C 123.019531 45.082031 122.839844 45.390625 122.65625 45.703125 C 122.800781 45.753906 122.945312 45.808594 123.09375 45.859375 C 125.070312 46.714844 126.859375 48.554688 127.742188 50.5 C 128.640625 52.773438 128.433594 54.765625 127.539062 57.03125 C 125.484375 61.347656 120.972656 63.796875 116.648438 65.34375 C 116.179688 65.507812 115.707031 65.664062 115.234375 65.820312 C 115.023438 65.890625 115.023438 65.890625 114.804688 65.960938 C 111.75 66.941406 108.484375 67.59375 105.273438 67.578125 C 105.273438 67.738281 105.277344 67.898438 105.277344 68.0625 C 105.320312 71.953125 105.355469 75.839844 105.375 79.730469 C 105.382812 81.613281 105.398438 83.492188 105.421875 85.375 C 105.441406 87.011719 105.453125 88.652344 105.457031 90.292969 C 105.460938 91.160156 105.464844 92.027344 105.480469 92.894531 C 105.492188 93.714844 105.496094 94.53125 105.496094 95.347656 C 105.496094 95.648438 105.5 95.949219 105.507812 96.246094 C 105.558594 98.507812 105.558594 98.507812 104.851562 99.300781 C 104.355469 99.652344 103.867188 99.925781 103.320312 100.195312 C 103.050781 100.367188 102.785156 100.542969 102.523438 100.71875 C 102.28125 100.871094 102.039062 101.023438 101.792969 101.171875 C 101.609375 101.289062 101.609375 101.289062 101.421875 101.414062 C 100.519531 101.964844 100.519531 101.964844 99.925781 101.910156 C 99.351562 101.738281 98.90625 101.503906 98.390625 101.195312 C 98.203125 101.085938 98.015625 100.972656 97.820312 100.855469 C 97.625 100.738281 97.429688 100.621094 97.230469 100.5 C 96.933594 100.324219 96.933594 100.324219 96.632812 100.144531 C 95.175781 99.277344 95.175781 99.277344 94.726562 98.828125 C 94.679688 98.292969 94.679688 98.292969 94.679688 97.59375 C 94.679688 97.46875 94.679688 97.339844 94.679688 97.207031 C 94.679688 96.777344 94.679688 96.347656 94.683594 95.914062 C 94.683594 95.605469 94.683594 95.300781 94.683594 94.992188 C 94.683594 94.152344 94.683594 93.316406 94.6875 92.476562 C 94.6875 91.601562 94.691406 90.730469 94.691406 89.855469 C 94.691406 88.195312 94.695312 86.539062 94.699219 84.882812 C 94.703125 82.996094 94.703125 81.109375 94.707031 79.222656 C 94.710938 75.339844 94.71875 71.460938 94.726562 67.578125 C 94.609375 67.578125 94.488281 67.578125 94.367188 67.582031 C 94.207031 67.582031 94.050781 67.582031 93.890625 67.582031 C 93.734375 67.582031 93.578125 67.585938 93.417969 67.585938 C 92.332031 67.566406 91.257812 67.34375 90.1875 67.164062 C 90.058594 67.140625 89.929688 67.121094 89.796875 67.097656 C 84.5625 66.210938 78.804688 64.613281 74.804688 60.9375 C 74.652344 60.800781 74.496094 60.660156 74.335938 60.519531 C 72.476562 58.761719 71.105469 56.519531 71.011719 53.914062 C 70.992188 51.316406 71.742188 49.191406 73.523438 47.265625 C 75.269531 45.632812 77.347656 44.476562 79.480469 43.433594 C 79.652344 43.347656 79.820312 43.261719 80 43.171875 C 81.058594 42.671875 81.832031 42.453125 83.007812 42.578125 C 83.800781 42.988281 84.238281 43.316406 84.570312 44.140625 C 84.644531 44.558594 84.644531 44.558594 84.65625 44.996094 C 84.667969 45.207031 84.667969 45.207031 84.679688 45.425781 C 84.515625 46.140625 84.132812 46.597656 83.59375 47.070312 C 83.023438 47.414062 82.425781 47.675781 81.8125 47.9375 C 78.710938 49.324219 78.710938 49.324219 76.488281 51.820312 C 76.203125 53.046875 76.488281 54.214844 77.148438 55.273438 C 79.738281 59.078125 86.238281 60.304688 90.429688 61.132812 C 91.847656 61.328125 93.265625 61.519531 94.726562 61.71875 C 94.726562 53.921875 94.726562 46.121094 94.726562 38.085938 C 93.890625 38.085938 93.050781 38.085938 92.1875 38.085938 C 91.28125 38.078125 90.371094 38.058594 89.464844 38.039062 C 89.234375 38.035156 89.003906 38.03125 88.769531 38.027344 C 87.519531 37.992188 86.683594 37.964844 85.742188 37.109375 C 85.296875 36.539062 85.257812 35.917969 85.277344 35.203125 C 85.5625 33.496094 86.902344 31.816406 87.78125 30.359375 C 88.96875 28.375 90.117188 26.378906 91.238281 24.355469 C 91.859375 23.238281 92.492188 22.128906 93.152344 21.03125 C 94.175781 19.324219 95.101562 17.5625 96.023438 15.796875 C 98.574219 10.976562 98.574219 10.976562 101.171875 11.71875 Z M 101.171875 11.71875 "/>
<path style=" stroke:none;fill-rule:nonzero;fill:rgb(10.980392%,60.392159%,90.196079%);fill-opacity:1;" d="M 101.171875 11.71875 C 102.308594 12.363281 102.777344 13.539062 103.367188 14.648438 C 103.613281 15.09375 103.855469 15.535156 104.097656 15.980469 C 104.195312 16.152344 104.195312 16.152344 104.292969 16.328125 C 105.003906 17.613281 105.765625 18.863281 106.53125 20.117188 C 106.671875 20.347656 106.8125 20.578125 106.957031 20.8125 C 107.167969 21.15625 107.378906 21.5 107.589844 21.847656 C 108.289062 22.992188 108.980469 24.140625 109.667969 25.292969 C 110.449219 26.59375 111.230469 27.894531 112.019531 29.191406 C 112.132812 29.378906 112.132812 29.378906 112.246094 29.566406 C 112.609375 30.160156 112.972656 30.757812 113.335938 31.351562 C 115.632812 35.125 115.632812 35.125 115.429688 36.328125 C 114.976562 37.214844 114.417969 37.914062 113.476562 38.28125 C 112.601562 38.382812 111.734375 38.363281 110.851562 38.34375 C 110.621094 38.339844 110.390625 38.339844 110.152344 38.335938 C 108.453125 38.316406 106.777344 38.199219 105.078125 38.085938 C 105.078125 45.949219 105.078125 53.8125 105.078125 61.914062 C 101.726562 61.914062 98.375 61.914062 94.921875 61.914062 C 94.921875 54.050781 94.921875 46.1875 94.921875 38.085938 C 94.019531 38.085938 93.117188 38.085938 92.1875 38.085938 C 91.277344 38.078125 90.363281 38.0625 89.453125 38.039062 C 89.222656 38.035156 88.996094 38.03125 88.757812 38.027344 C 87.511719 37.992188 86.683594 37.960938 85.742188 37.109375 C 85.296875 36.539062 85.257812 35.917969 85.277344 35.203125 C 85.5625 33.496094 86.902344 31.816406 87.78125 30.359375 C 88.96875 28.375 90.117188 26.378906 91.238281 24.355469 C 91.859375 23.238281 92.492188 22.128906 93.152344 21.03125 C 94.175781 19.324219 95.101562 17.5625 96.023438 15.796875 C 98.574219 10.976562 98.574219 10.976562 101.171875 11.71875 Z M 101.171875 11.71875 "/>
<path style=" stroke:none;fill-rule:nonzero;fill:rgb(27.450982%,81.568629%,21.568628%);fill-opacity:1;" d="M 135.9375 117.382812 C 137.253906 117.636719 138.222656 118.136719 139.355469 118.835938 C 139.738281 119.066406 140.117188 119.296875 140.5 119.527344 C 140.8125 119.714844 140.8125 119.714844 141.128906 119.90625 C 142.234375 120.578125 143.347656 121.234375 144.460938 121.894531 C 145.132812 122.292969 145.808594 122.695312 146.480469 123.09375 C 147.882812 123.925781 149.28125 124.753906 150.683594 125.585938 C 151.109375 125.835938 151.53125 126.089844 151.957031 126.339844 C 152.824219 126.855469 153.695312 127.371094 154.5625 127.882812 C 155.136719 128.222656 155.710938 128.5625 156.28125 128.902344 C 156.558594 129.066406 156.835938 129.230469 157.113281 129.394531 C 157.5 129.621094 157.886719 129.851562 158.273438 130.082031 C 158.445312 130.183594 158.445312 130.183594 158.621094 130.285156 C 159.34375 130.714844 160.046875 131.167969 160.742188 131.640625 C 160.792969 131.476562 160.839844 131.316406 160.890625 131.148438 C 161.164062 130.382812 161.507812 129.695312 161.890625 128.980469 C 161.957031 128.851562 162.023438 128.722656 162.089844 128.59375 C 162.980469 126.921875 162.980469 126.921875 163.894531 126.617188 C 164.902344 126.515625 165.542969 126.546875 166.40625 127.148438 C 167.21875 128.039062 167.753906 129.089844 168.335938 130.140625 C 168.5625 130.546875 168.789062 130.949219 169.015625 131.355469 C 169.132812 131.566406 169.25 131.773438 169.371094 131.988281 C 170.378906 133.773438 171.421875 135.539062 172.460938 137.304688 C 172.613281 137.566406 172.613281 137.566406 172.773438 137.835938 C 173.816406 139.613281 174.867188 141.386719 175.933594 143.152344 C 176.015625 143.285156 176.09375 143.417969 176.175781 143.554688 C 176.578125 144.21875 176.976562 144.882812 177.378906 145.542969 C 177.523438 145.789062 177.671875 146.03125 177.816406 146.273438 C 177.945312 146.488281 178.078125 146.703125 178.210938 146.925781 C 178.703125 147.789062 178.792969 148.429688 178.710938 149.414062 C 178.386719 150.351562 177.902344 150.933594 177.007812 151.410156 C 176.027344 151.742188 174.980469 151.605469 173.960938 151.550781 C 173.695312 151.539062 173.425781 151.527344 173.15625 151.515625 C 170.132812 151.382812 167.109375 151.183594 164.089844 150.996094 C 161.679688 150.84375 159.273438 150.710938 156.859375 150.644531 C 152.75 150.523438 152.75 150.523438 151.757812 149.609375 C 151.226562 149.027344 151.121094 148.5625 151.144531 147.792969 C 151.316406 146.285156 152.285156 145.125 153.136719 143.921875 C 153.304688 143.675781 153.472656 143.429688 153.644531 143.183594 C 154.050781 142.589844 154.464844 141.996094 154.882812 141.40625 C 154.464844 140.957031 154.050781 140.644531 153.519531 140.339844 C 153.28125 140.199219 153.28125 140.199219 153.035156 140.054688 C 152.859375 139.953125 152.683594 139.851562 152.503906 139.746094 C 152.113281 139.515625 151.71875 139.289062 151.328125 139.058594 C 151.117188 138.933594 150.902344 138.808594 150.683594 138.683594 C 149.4375 137.953125 148.191406 137.210938 146.949219 136.476562 C 146.816406 136.394531 146.683594 136.316406 146.546875 136.238281 C 144.515625 135.03125 142.492188 133.808594 140.476562 132.578125 C 139.03125 131.695312 137.578125 130.828125 136.089844 130.015625 C 135.105469 129.476562 134.195312 128.921875 133.398438 128.125 C 133.011719 127.859375 132.621094 127.597656 132.226562 127.34375 C 132.339844 126.351562 132.558594 125.453125 132.898438 124.511719 C 132.949219 124.371094 132.996094 124.234375 133.046875 124.089844 C 133.878906 121.8125 134.835938 119.542969 135.9375 117.382812 Z M 135.9375 117.382812 "/>
<path style=" stroke:none;fill-rule:nonzero;fill:rgb(99.607843%,32.549021%,22.745098%);fill-opacity:1;" d="M 94.53125 98.828125 C 94.898438 98.972656 94.898438 98.972656 95.3125 99.21875 C 95.464844 99.300781 95.613281 99.386719 95.769531 99.472656 C 95.933594 99.566406 96.097656 99.660156 96.265625 99.757812 C 96.445312 99.859375 96.625 99.960938 96.808594 100.066406 C 96.996094 100.175781 97.183594 100.28125 97.375 100.390625 C 97.5625 100.496094 97.75 100.605469 97.941406 100.714844 C 98.121094 100.816406 98.300781 100.917969 98.488281 101.023438 C 98.652344 101.117188 98.816406 101.210938 98.984375 101.308594 C 99.328125 101.511719 99.667969 101.730469 100 101.953125 C 100.074219 102.4375 100.109375 102.871094 100.117188 103.359375 C 100.125 103.570312 100.125 103.570312 100.128906 103.785156 C 100.132812 104.078125 100.136719 104.375 100.140625 104.671875 C 100.144531 105.125 100.164062 105.574219 100.183594 106.023438 C 100.230469 108.113281 100.230469 108.113281 99.648438 108.835938 C 99.191406 109.140625 98.75 109.359375 98.242188 109.570312 C 98.003906 109.707031 97.769531 109.851562 97.535156 109.996094 C 97.296875 110.136719 97.054688 110.273438 96.8125 110.414062 C 95.28125 111.304688 93.761719 112.222656 92.25 113.148438 C 90.59375 114.15625 88.9375 115.15625 87.269531 116.136719 C 84.433594 117.808594 81.609375 119.5 78.796875 121.207031 C 78.671875 121.285156 78.550781 121.359375 78.421875 121.4375 C 77.820312 121.800781 77.222656 122.167969 76.621094 122.53125 C 73.4375 124.46875 73.4375 124.46875 72.070312 124.804688 C 71.277344 123.296875 70.597656 121.765625 69.945312 120.191406 C 69.273438 118.578125 68.53125 117.003906 67.773438 115.429688 C 68.601562 114.558594 68.601562 114.558594 69.335938 114.453125 C 69.335938 114.257812 69.335938 114.066406 69.335938 113.867188 C 69.734375 113.566406 69.734375 113.566406 70.296875 113.242188 C 70.507812 113.121094 70.714844 113 70.933594 112.875 C 71.046875 112.808594 71.160156 112.746094 71.277344 112.675781 C 71.757812 112.402344 72.238281 112.121094 72.71875 111.84375 C 72.972656 111.695312 73.222656 111.550781 73.472656 111.402344 C 74.769531 110.652344 76.050781 109.875 77.332031 109.09375 C 77.558594 108.957031 77.789062 108.816406 78.015625 108.675781 C 78.929688 108.121094 79.84375 107.5625 80.757812 107.007812 C 83.570312 105.292969 86.386719 103.59375 89.230469 101.9375 C 90.253906 101.34375 91.273438 100.746094 92.277344 100.125 C 92.433594 100.03125 92.585938 99.933594 92.746094 99.835938 C 93.023438 99.667969 93.296875 99.496094 93.570312 99.320312 C 93.929688 99.101562 93.929688 99.101562 94.53125 98.828125 Z M 94.53125 98.828125 "/>
<path style=" stroke:none;fill-rule:nonzero;fill:rgb(27.450982%,81.568629%,21.568628%);fill-opacity:1;" d="M 106.25 99.21875 C 106.601562 99.398438 106.945312 99.59375 107.285156 99.792969 C 107.480469 99.90625 107.671875 100.019531 107.871094 100.136719 C 108.074219 100.257812 108.273438 100.375 108.484375 100.5 C 108.695312 100.625 108.90625 100.75 109.121094 100.875 C 110.339844 101.59375 111.554688 102.320312 112.769531 103.050781 C 113.777344 103.660156 114.792969 104.257812 115.808594 104.859375 C 120.34375 107.535156 124.871094 110.226562 129.367188 112.96875 C 129.714844 113.179688 130.066406 113.378906 130.425781 113.566406 C 130.859375 113.867188 130.859375 113.867188 131.035156 114.242188 C 131.058594 114.734375 130.957031 115.011719 130.75 115.457031 C 130.679688 115.617188 130.609375 115.773438 130.535156 115.9375 C 130.457031 116.109375 130.378906 116.277344 130.296875 116.453125 C 129.347656 118.589844 128.519531 120.765625 127.71875 122.960938 C 127.535156 123.449219 127.34375 123.933594 127.148438 124.414062 C 125.710938 123.726562 124.347656 122.949219 122.984375 122.117188 C 122.554688 121.859375 122.121094 121.597656 121.691406 121.335938 C 121.523438 121.234375 121.523438 121.234375 121.351562 121.132812 C 120.054688 120.351562 118.75 119.585938 117.445312 118.824219 C 116.964844 118.542969 116.480469 118.261719 116 117.980469 C 115.886719 117.910156 115.769531 117.84375 115.648438 117.773438 C 114.425781 117.058594 113.207031 116.335938 111.988281 115.617188 C 110.988281 115.023438 109.988281 114.433594 108.984375 113.851562 C 106.679688 112.503906 104.378906 111.152344 102.101562 109.765625 C 101.910156 109.648438 101.71875 109.535156 101.523438 109.414062 C 100.222656 108.621094 100.222656 108.621094 100 108.398438 C 99.3125 103.050781 99.3125 103.050781 100.296875 101.476562 C 101.058594 100.789062 101.949219 100.453125 102.917969 100.144531 C 103.609375 99.898438 104.128906 99.429688 104.695312 98.976562 C 105.289062 98.746094 105.667969 98.996094 106.25 99.21875 Z M 106.25 99.21875 "/>
<path style=" stroke:none;fill-rule:nonzero;fill:rgb(10.980392%,60.784316%,90.588236%);fill-opacity:1;" d="M 94.921875 67.773438 C 98.273438 67.773438 101.625 67.773438 105.078125 67.773438 C 105.160156 71.808594 105.230469 75.839844 105.269531 79.875 C 105.289062 81.75 105.316406 83.621094 105.359375 85.496094 C 105.394531 87.128906 105.417969 88.761719 105.425781 90.394531 C 105.433594 91.261719 105.441406 92.125 105.46875 92.988281 C 105.628906 98.246094 105.628906 98.246094 104.710938 99.539062 C 103.847656 100.34375 102.894531 100.824219 101.789062 101.210938 C 101.28125 101.398438 100.851562 101.671875 100.390625 101.953125 C 99.613281 101.910156 99.054688 101.59375 98.390625 101.203125 C 98.109375 101.035156 98.109375 101.035156 97.820312 100.867188 C 97.625 100.75 97.429688 100.632812 97.230469 100.511719 C 96.933594 100.339844 96.933594 100.339844 96.632812 100.164062 C 95.167969 99.292969 95.167969 99.292969 94.726562 98.632812 C 94.679688 98.078125 94.679688 98.078125 94.6875 97.390625 C 94.6875 97.265625 94.6875 97.136719 94.6875 97.007812 C 94.691406 96.582031 94.695312 96.15625 94.699219 95.734375 C 94.703125 95.429688 94.703125 95.125 94.707031 94.820312 C 94.710938 93.996094 94.71875 93.167969 94.726562 92.34375 C 94.734375 91.480469 94.738281 90.617188 94.746094 89.753906 C 94.757812 88.117188 94.769531 86.480469 94.785156 84.847656 C 94.800781 82.984375 94.816406 81.125 94.828125 79.261719 C 94.859375 75.433594 94.890625 71.601562 94.921875 67.773438 Z M 94.921875 67.773438 "/>
<path style=" stroke:none;fill-rule:nonzero;fill:rgb(29.411766%,81.176472%,19.607843%);fill-opacity:1;" d="M 102.734375 100.390625 C 102.863281 100.519531 102.992188 100.648438 103.125 100.78125 C 103.0625 100.976562 102.996094 101.167969 102.929688 101.367188 C 102.867188 101.304688 102.800781 101.238281 102.734375 101.171875 C 101.792969 101.46875 101.792969 101.46875 101.171875 102.148438 C 101.042969 102.148438 100.914062 102.148438 100.78125 102.148438 C 100.84375 102.46875 100.910156 102.792969 100.976562 103.125 C 100.78125 103.125 100.589844 103.125 100.390625 103.125 C 100.261719 102.738281 100.132812 102.351562 100 101.953125 C 100.902344 101.4375 101.804688 100.921875 102.734375 100.390625 Z M 102.734375 100.390625 "/>
<path style=" stroke:none;fill-rule:nonzero;fill:rgb(98.823529%,29.019609%,26.274511%);fill-opacity:1;" d="M 40.234375 110.546875 C 40.871094 110.488281 40.871094 110.488281 41.625 110.511719 C 42 110.519531 42 110.519531 42.382812 110.527344 C 42.578125 110.53125 42.769531 110.539062 42.96875 110.546875 C 42.308594 111.160156 41.851562 111.199219 40.96875 111.167969 C 40.652344 111.160156 40.652344 111.160156 40.328125 111.152344 C 40.167969 111.148438 40.007812 111.140625 39.84375 111.132812 C 39.972656 110.9375 40.101562 110.746094 40.234375 110.546875 Z M 40.234375 110.546875 "/>
<path style=" stroke:none;fill-rule:nonzero;fill:rgb(9.019608%,75.294119%,14.117648%);fill-opacity:1;" d="M 139.0625 149.023438 C 138.476562 149.414062 138.476562 149.414062 137.890625 149.414062 C 137.875 150.101562 137.882812 150.707031 138.085938 151.367188 C 137.617188 151 137.5 150.777344 137.328125 150.195312 C 137.304688 149.609375 137.304688 149.609375 137.511719 149.242188 C 138.039062 148.9375 138.464844 148.984375 139.0625 149.023438 Z M 139.0625 149.023438 "/>
<path style=" stroke:none;fill-rule:nonzero;fill:rgb(99.215686%,21.568628%,18.82353%);fill-opacity:1;" d="M 34.570312 107.421875 C 34.632812 107.421875 34.699219 107.421875 34.765625 107.421875 C 34.78125 108.234375 34.761719 108.972656 34.570312 109.765625 C 34.179688 109.375 34.179688 109.375 34.175781 108.960938 C 34.199219 108.800781 34.21875 108.644531 34.242188 108.484375 C 34.261719 108.328125 34.28125 108.167969 34.300781 108.007812 C 34.375 107.617188 34.375 107.617188 34.570312 107.421875 Z M 34.570312 107.421875 "/>
<path style=" stroke:none;fill-rule:nonzero;fill:rgb(29.803923%,83.529413%,12.941177%);fill-opacity:1;" d="M 102.734375 100.390625 C 102.863281 100.519531 102.992188 100.648438 103.125 100.78125 C 103.0625 100.976562 102.996094 101.167969 102.929688 101.367188 C 102.867188 101.304688 102.800781 101.238281 102.734375 101.171875 C 102.21875 101.367188 101.703125 101.558594 101.171875 101.757812 C 101.457031 100.898438 101.949219 100.804688 102.734375 100.390625 Z M 102.734375 100.390625 "/>
<path style=" stroke:none;fill-rule:nonzero;fill:rgb(6.666667%,75.294119%,12.156863%);fill-opacity:1;" d="M 143.75 104.6875 C 143.75 105.386719 143.621094 105.488281 143.164062 105.992188 C 143.054688 106.117188 142.945312 106.238281 142.835938 106.363281 C 142.75 106.453125 142.664062 106.546875 142.578125 106.640625 C 142.578125 105.980469 142.75 105.5 142.96875 104.882812 C 143.164062 104.882812 143.355469 104.882812 143.554688 104.882812 C 143.617188 104.820312 143.683594 104.753906 143.75 104.6875 Z M 143.75 104.6875 "/>
<path style=" stroke:none;fill-rule:nonzero;fill:rgb(7.058824%,55.686277%,88.627452%);fill-opacity:1;" d="M 88.476562 29.296875 C 88.671875 29.6875 88.671875 29.6875 88.539062 30.273438 C 88.28125 30.859375 88.28125 30.859375 87.867188 31.128906 C 87.746094 31.167969 87.625 31.207031 87.5 31.25 C 87.761719 30.546875 88.078125 29.929688 88.476562 29.296875 Z M 88.476562 29.296875 "/>
<path style=" stroke:none;fill-rule:nonzero;fill:rgb(16.862746%,79.215688%,12.54902%);fill-opacity:1;" d="M 175 141.992188 C 175.511719 142.453125 175.855469 142.941406 176.171875 143.554688 C 176.109375 143.683594 176.042969 143.8125 175.976562 143.945312 C 175.847656 143.75 175.71875 143.558594 175.585938 143.359375 C 175.390625 143.296875 175.199219 143.230469 175 143.164062 C 175 142.777344 175 142.390625 175 141.992188 Z M 175 141.992188 "/>
<path style=" stroke:none;fill-rule:nonzero;fill:rgb(99.607843%,22.352941%,19.215687%);fill-opacity:1;" d="M 66.210938 158.59375 C 66.148438 158.722656 66.082031 158.851562 66.015625 158.984375 C 65.5625 158.984375 65.113281 158.984375 64.648438 158.984375 C 64.585938 158.855469 64.519531 158.726562 64.453125 158.59375 C 65.113281 158.429688 65.5625 158.378906 66.210938 158.59375 Z M 66.210938 158.59375 "/>
<path style=" stroke:none;fill-rule:nonzero;fill:rgb(97.647059%,25.098041%,15.294118%);fill-opacity:1;" d="M 94.140625 99.023438 C 94.269531 99.085938 94.398438 99.152344 94.53125 99.21875 C 94.53125 99.414062 94.53125 99.605469 94.53125 99.804688 C 93.40625 100.023438 93.40625 100.023438 92.96875 99.804688 C 93.355469 99.546875 93.742188 99.289062 94.140625 99.023438 Z M 94.140625 99.023438 "/>
</g>
</svg>
