<?xml version="1.0" encoding="UTF-8"?>
<svg xmlns="http://www.w3.org/2000/svg" xmlns:xlink="http://www.w3.org/1999/xlink" width="200px" height="200px" viewBox="0 0 200 200" version="1.1">
<g id="surface1">
<path style=" stroke:none;fill-rule:nonzero;fill:rgb(99.607843%,99.607843%,99.607843%);fill-opacity:1;" d="M 0 0 C 66 0 132 0 200 0 C 200 66 200 132 200 200 C 134 200 68 200 0 200 C 0 134 0 68 0 0 Z M 0 0 "/>
<path style=" stroke:none;fill-rule:nonzero;fill:rgb(99.607843%,57.647061%,7.058824%);fill-opacity:1;" d="M 106.039062 22.574219 C 107.800781 24.152344 109.460938 25.835938 111.132812 27.503906 C 111.488281 27.859375 111.84375 28.210938 112.195312 28.5625 C 113.253906 29.617188 114.308594 30.671875 115.363281 31.726562 C 115.761719 32.121094 116.160156 32.519531 116.5625 32.917969 C 118.320312 34.675781 120.082031 36.433594 121.839844 38.191406 C 122.269531 38.617188 122.699219 39.046875 123.128906 39.476562 C 123.234375 39.582031 123.339844 39.6875 123.449219 39.796875 C 125.179688 41.523438 126.910156 43.25 128.640625 44.976562 C 130.421875 46.75 132.203125 48.527344 133.980469 50.304688 C 134.976562 51.300781 135.972656 52.296875 136.972656 53.292969 C 137.914062 54.226562 138.851562 55.164062 139.785156 56.101562 C 140.128906 56.445312 140.472656 56.785156 140.816406 57.128906 C 143.875 60.164062 145.957031 62.710938 146 67.164062 C 146.003906 67.710938 146 68.257812 145.996094 68.804688 C 145.996094 69.203125 146 69.605469 146 70.003906 C 146.003906 71.097656 146 72.1875 145.996094 73.28125 C 145.996094 74.460938 145.996094 75.640625 146 76.820312 C 146.003906 78.996094 146 81.171875 146 83.351562 C 145.996094 85.359375 145.996094 87.371094 145.996094 89.382812 C 145.996094 89.582031 145.996094 89.582031 145.996094 89.785156 C 145.996094 90.328125 145.996094 90.871094 145.996094 91.414062 C 145.996094 96.496094 145.996094 101.578125 145.988281 106.660156 C 145.984375 111.171875 145.984375 115.683594 145.984375 120.195312 C 145.984375 121.351562 145.988281 122.507812 145.988281 123.664062 C 145.988281 123.804688 145.988281 123.945312 145.988281 124.09375 C 145.988281 127.867188 145.988281 131.640625 145.984375 135.414062 C 145.984375 135.820312 145.984375 136.226562 145.984375 136.632812 C 145.984375 136.902344 145.984375 137.171875 145.984375 137.441406 C 145.984375 139.449219 145.984375 141.460938 145.984375 143.46875 C 145.984375 145.753906 145.984375 148.039062 145.980469 150.324219 C 145.976562 151.488281 145.976562 152.65625 145.980469 153.820312 C 145.980469 154.886719 145.980469 155.957031 145.976562 157.023438 C 145.972656 157.410156 145.976562 157.792969 145.976562 158.179688 C 145.984375 161.53125 145.601562 164.429688 143.210938 166.984375 C 141.511719 168.53125 139.441406 169.359375 137.164062 169.359375 C 137.03125 169.363281 136.902344 169.363281 136.769531 169.363281 C 136.332031 169.363281 135.894531 169.363281 135.457031 169.363281 C 135.140625 169.363281 134.824219 169.363281 134.507812 169.363281 C 133.640625 169.363281 132.769531 169.363281 131.898438 169.363281 C 130.960938 169.363281 130.023438 169.367188 129.085938 169.367188 C 127.25 169.367188 125.414062 169.367188 123.574219 169.367188 C 122.082031 169.367188 120.589844 169.367188 119.09375 169.371094 C 114.863281 169.371094 110.628906 169.371094 106.398438 169.371094 C 106.167969 169.371094 105.941406 169.371094 105.703125 169.371094 C 105.476562 169.371094 105.246094 169.371094 105.011719 169.371094 C 101.308594 169.371094 97.605469 169.375 93.902344 169.375 C 90.097656 169.378906 86.296875 169.378906 82.496094 169.378906 C 80.359375 169.378906 78.226562 169.382812 76.089844 169.382812 C 74.273438 169.386719 72.453125 169.386719 70.636719 169.382812 C 69.710938 169.382812 68.78125 169.382812 67.855469 169.386719 C 67.003906 169.386719 66.15625 169.386719 65.304688 169.382812 C 65 169.382812 64.691406 169.382812 64.386719 169.386719 C 61.214844 169.394531 58.859375 168.914062 56.496094 166.679688 C 53.902344 163.929688 53.847656 160.664062 53.855469 157.09375 C 53.855469 156.699219 53.855469 156.304688 53.851562 155.910156 C 53.851562 154.832031 53.851562 153.75 53.851562 152.671875 C 53.851562 151.503906 53.851562 150.339844 53.847656 149.171875 C 53.847656 146.890625 53.847656 144.609375 53.847656 142.324219 C 53.847656 140.46875 53.847656 138.613281 53.847656 136.757812 C 53.847656 136.492188 53.847656 136.222656 53.847656 135.957031 C 53.847656 135.554688 53.84375 135.152344 53.84375 134.75 C 53.84375 131.015625 53.84375 127.277344 53.84375 123.539062 C 53.84375 123.398438 53.84375 123.257812 53.84375 123.113281 C 53.84375 122.398438 53.84375 121.6875 53.84375 120.972656 C 53.84375 120.832031 53.84375 120.6875 53.84375 120.542969 C 53.84375 120.257812 53.84375 119.96875 53.84375 119.683594 C 53.847656 115.222656 53.84375 110.765625 53.839844 106.304688 C 53.835938 101.292969 53.835938 96.277344 53.835938 91.265625 C 53.835938 90.730469 53.835938 90.195312 53.835938 89.660156 C 53.835938 89.464844 53.835938 89.464844 53.835938 89.261719 C 53.835938 87.277344 53.835938 85.292969 53.832031 83.304688 C 53.828125 81.046875 53.828125 78.789062 53.832031 76.527344 C 53.832031 75.378906 53.832031 74.226562 53.832031 73.074219 C 53.828125 72.015625 53.828125 70.960938 53.832031 69.90625 C 53.832031 69.527344 53.832031 69.144531 53.832031 68.761719 C 53.816406 65.246094 54.261719 61.992188 56.765625 59.3125 C 56.859375 59.214844 56.949219 59.117188 57.042969 59.015625 C 58.484375 57.484375 59.980469 56.003906 61.464844 54.515625 C 61.8125 54.167969 62.15625 53.820312 62.503906 53.476562 C 63.53125 52.441406 64.5625 51.410156 65.589844 50.378906 C 65.980469 49.988281 66.367188 49.601562 66.757812 49.210938 C 68.476562 47.488281 70.191406 45.769531 71.910156 44.046875 C 72.328125 43.628906 72.746094 43.210938 73.167969 42.792969 C 73.269531 42.6875 73.375 42.582031 73.480469 42.476562 C 75.167969 40.785156 76.855469 39.09375 78.542969 37.402344 C 80.277344 35.660156 82.015625 33.921875 83.753906 32.183594 C 84.726562 31.207031 85.699219 30.230469 86.671875 29.253906 C 87.585938 28.335938 88.5 27.421875 89.417969 26.507812 C 89.75 26.171875 90.085938 25.835938 90.421875 25.5 C 90.878906 25.039062 91.335938 24.582031 91.796875 24.125 C 91.992188 23.925781 91.992188 23.925781 92.191406 23.722656 C 95.859375 20.101562 101.867188 19.152344 106.039062 22.574219 Z M 106.039062 22.574219 "/>
<path style=" stroke:none;fill-rule:nonzero;fill:rgb(99.607843%,99.215686%,98.823529%);fill-opacity:1;" d="M 101.734375 76.402344 C 102.851562 77.050781 103.378906 77.664062 103.710938 78.90625 C 103.753906 79.558594 103.753906 79.558594 103.75 80.257812 C 103.746094 80.511719 103.746094 80.761719 103.746094 81.023438 C 103.742188 81.285156 103.738281 81.546875 103.734375 81.8125 C 103.734375 82.078125 103.730469 82.347656 103.730469 82.613281 C 103.726562 83.265625 103.71875 83.917969 103.710938 84.570312 C 103.9375 84.59375 104.164062 84.613281 104.398438 84.636719 C 105.234375 84.742188 105.992188 84.972656 106.773438 85.277344 C 106.910156 85.328125 107.042969 85.382812 107.183594 85.433594 C 109.214844 86.238281 111.019531 87.269531 112.695312 88.671875 C 112.894531 88.816406 113.089844 88.960938 113.292969 89.109375 C 114.792969 90.375 116.109375 92.378906 116.394531 94.335938 C 116.453125 95.289062 116.324219 96.054688 115.820312 96.875 C 114.867188 97.875 113.960938 98.167969 112.609375 98.316406 C 111.425781 98.191406 110.542969 97.734375 109.742188 96.851562 C 109.308594 96.308594 108.96875 95.734375 108.628906 95.128906 C 107.523438 93.238281 106 92.273438 103.925781 91.691406 C 100.449219 90.816406 96.640625 91.210938 93.539062 92.980469 C 92.035156 93.984375 91.144531 95.386719 90.707031 97.132812 C 90.34375 99.457031 90.589844 101.589844 91.917969 103.5625 C 94.160156 106.292969 98.148438 107.316406 101.367188 108.398438 C 114.109375 112.6875 114.109375 112.6875 117.027344 118.078125 C 118.671875 121.585938 119.003906 125.820312 117.722656 129.507812 C 116.945312 131.542969 115.925781 133.34375 114.453125 134.960938 C 114.351562 135.078125 114.25 135.199219 114.148438 135.320312 C 111.582031 138.148438 107.421875 139.742188 103.710938 140.039062 C 103.71875 140.285156 103.71875 140.285156 103.722656 140.535156 C 103.738281 141.148438 103.746094 141.761719 103.753906 142.375 C 103.757812 142.765625 103.769531 143.160156 103.78125 143.550781 C 103.792969 145.015625 103.75 146.035156 102.929688 147.265625 C 102 148.148438 101.292969 148.273438 100.035156 148.289062 C 99.800781 148.296875 99.566406 148.300781 99.324219 148.304688 C 98.4375 148.222656 97.800781 147.964844 97.140625 147.363281 C 96.367188 146.371094 96.265625 145.757812 96.269531 144.515625 C 96.269531 144.382812 96.269531 144.25 96.269531 144.113281 C 96.273438 143.6875 96.273438 143.261719 96.277344 142.835938 C 96.277344 142.546875 96.277344 142.257812 96.28125 141.96875 C 96.28125 141.257812 96.285156 140.550781 96.289062 139.84375 C 96.152344 139.820312 96.015625 139.800781 95.875 139.777344 C 94.738281 139.582031 93.675781 139.347656 92.601562 138.929688 C 92.46875 138.878906 92.339844 138.824219 92.203125 138.773438 C 88.019531 137.113281 84.386719 134.382812 82.421875 130.273438 C 81.933594 129.003906 81.8125 127.816406 82.238281 126.515625 C 82.847656 125.652344 83.558594 124.945312 84.570312 124.609375 C 85.910156 124.464844 86.976562 124.59375 88.085938 125.390625 C 88.734375 126.039062 89.152344 126.710938 89.613281 127.503906 C 91.15625 130.113281 93.414062 131.683594 96.289062 132.617188 C 99.964844 133.558594 103.859375 133.214844 107.207031 131.433594 C 108.996094 130.3125 109.882812 128.492188 110.414062 126.488281 C 110.839844 124.199219 110.621094 122.0625 109.375 120.082031 C 108.582031 119.015625 107.605469 118.390625 106.445312 117.773438 C 106.21875 117.648438 105.992188 117.523438 105.761719 117.398438 C 104.636719 116.839844 103.433594 116.511719 102.234375 116.148438 C 101.980469 116.074219 101.730469 115.996094 101.476562 115.917969 C 100.304688 115.558594 99.128906 115.207031 97.953125 114.859375 C 94.09375 113.707031 90 112.457031 86.914062 109.765625 C 86.734375 109.628906 86.734375 109.628906 86.554688 109.488281 C 84.070312 107.542969 82.84375 104.410156 82.421875 101.367188 C 82.039062 97.308594 82.902344 93.386719 85.46875 90.152344 C 88.226562 86.90625 92.097656 84.949219 96.289062 84.375 C 96.28125 84.109375 96.28125 84.109375 96.277344 83.835938 C 96.261719 83.175781 96.253906 82.515625 96.246094 81.851562 C 96.242188 81.566406 96.238281 81.28125 96.230469 80.996094 C 96.21875 80.582031 96.214844 80.171875 96.210938 79.757812 C 96.207031 79.386719 96.207031 79.386719 96.199219 79.007812 C 96.304688 78.191406 96.554688 77.785156 97.070312 77.148438 C 98.441406 76.113281 100.082031 75.761719 101.734375 76.402344 Z M 101.734375 76.402344 "/>
<path style=" stroke:none;fill-rule:nonzero;fill:rgb(99.607843%,99.607843%,99.215686%);fill-opacity:1;" d="M 105.273438 46.09375 C 106.875 47.558594 107.894531 49.296875 108.0625 51.472656 C 108.125 53.886719 107.664062 55.914062 106.058594 57.8125 C 104.359375 59.496094 102.417969 60.328125 100.035156 60.386719 C 97.816406 60.351562 95.925781 59.59375 94.273438 58.082031 C 92.65625 56.351562 91.894531 54.101562 91.945312 51.769531 C 92.117188 49.605469 93.179688 47.671875 94.753906 46.199219 C 97.839844 43.65625 102.097656 43.675781 105.273438 46.09375 Z M 105.273438 46.09375 "/>
</g>
</svg>
